STARTFONT 2.1
COMMENT Exported by Fony v1.4.6
FONT Fixed
SIZE 70 100 100
FONTBOUNDINGBOX 34 69 0 -2
STARTPROPERTIES 6
COPYRIGHT "Public domain terminal emulator font.  Share and enjoy. original font -Misc-Fixed-Medium-R-SemiCondensed--12-110-75-75-C-60-ISO10646-1"
RESOLUTION_X 100
RESOLUTION_Y 100
FONT_ASCENT 68
FONT_DESCENT 2
DEFAULT_CHAR 0
ENDPROPERTIES
CHARS 256
STARTCHAR 000
ENCODING 0
SWIDTH 1944 0
DWIDTH 27 0
BBX 0 0 0 0
BITMAP
ENDCHAR
STARTCHAR 001
ENCODING 1
SWIDTH 2304 0
DWIDTH 32 0
BBX 27 47 0 9
BITMAP
03E00000
03E00000
03E00000
03E00000
03E00000
03E00000
FFFFFC00
FFFFFC00
FFFFFC00
FFFFFC00
FFFFFC00
FFFFFC00
FFE003E0
FFE003E0
FFE003E0
FFE003E0
FFE003E0
FFE003E0
FC0003E0
FC0003E0
FC0003E0
FC0003E0
FC0003E0
FC0003E0
FC0003E0
FC0003E0
FC0003E0
FC0003E0
FC0003E0
FC00FFE0
FC00FFE0
FC00FFE0
FC00FFE0
FC00FFE0
FC00FFE0
03FFFFE0
03FFFFE0
03FFFFE0
03FFFFE0
03FFFFE0
03FFFFE0
0000FC00
0000FC00
0000FC00
0000FC00
0000FC00
0000FC00
ENDCHAR
STARTCHAR 002
ENCODING 2
SWIDTH 2304 0
DWIDTH 32 0
BBX 27 47 0 9
BITMAP
FFE00000
FFE00000
FFE00000
FFE00000
FFE00000
FFE00000
FFFFFFE0
FFFFFFE0
FFFFFFE0
FFFFFFE0
FFFFFFE0
FFFFFFE0
FC0003E0
FC0003E0
FC0003E0
FC0003E0
FC0003E0
FC0003E0
FC0003E0
FC0003E0
FC0003E0
FC0003E0
FC0003E0
FC0003E0
FC0003E0
FC0003E0
FC0003E0
FC0003E0
FC0003E0
FC0003E0
FC0003E0
FC0003E0
FC0003E0
FC0003E0
FC0003E0
FC0003E0
FC0003E0
FC0003E0
FC0003E0
FC0003E0
FC0003E0
FFFFFFE0
FFFFFFE0
FFFFFFE0
FFFFFFE0
FFFFFFE0
FFFFFFE0
ENDCHAR
STARTCHAR 003
ENCODING 3
SWIDTH 2304 0
DWIDTH 32 0
BBX 27 29 0 15
BITMAP
001F0000
001F0000
001F0000
001F0000
001F0000
001F0000
001FFC00
001FFC00
001FFC00
001FFC00
001FFC00
FFFFFFE0
FFFFFFE0
FFFFFFE0
FFFFFFE0
FFFFFFE0
FFFFFFE0
001FFC00
001FFC00
001FFC00
001FFC00
001FFC00
001FFC00
001F0000
001F0000
001F0000
001F0000
001F0000
001F0000
ENDCHAR
STARTCHAR 004
ENCODING 4
SWIDTH 2304 0
DWIDTH 32 0
BBX 27 47 0 9
BITMAP
001F0000
001F0000
001F0000
001F0000
001F0000
001F0000
03FFFC00
03FFFC00
03FFFC00
03FFFC00
03FFFC00
03FFFC00
FFFFFFE0
FFFFFFE0
FFFFFFE0
FFFFFFE0
FFFFFFE0
FFFFFFE0
001F0000
001F0000
001F0000
001F0000
001F0000
001F0000
001F0000
001F0000
001F0000
001F0000
001F0000
001F0000
001F0000
001F0000
001F0000
001F0000
001F0000
001F0000
001F0000
001F0000
001F0000
001F0000
001F0000
FFFF0000
FFFF0000
FFFF0000
FFFF0000
FFFF0000
FFFF0000
ENDCHAR
STARTCHAR 005
ENCODING 5
SWIDTH 2304 0
DWIDTH 32 0
BBX 27 53 0 3
BITMAP
001F0000
001F0000
001F0000
001F0000
001F0000
001F0000
03FFFC00
03FFFC00
03FFFC00
03FFFC00
03FFFC00
03FFFC00
FC1F03E0
FC1F03E0
FC1F03E0
FC1F03E0
FC1F03E0
FC1F03E0
FC1F03E0
FC1F03E0
FC1F03E0
FC1F03E0
FC1F03E0
FC1FFFE0
FC1FFFE0
FC1FFFE0
FC1FFFE0
FC1FFFE0
FC1FFFE0
FC0003E0
FC0003E0
FC0003E0
FC0003E0
FC0003E0
FC0003E0
FC0003E0
FC0003E0
FC0003E0
FC0003E0
FC0003E0
FC0003E0
03FFFC00
03FFFC00
03FFFC00
03FFFC00
03FFFC00
03FFFC00
001F0000
001F0000
001F0000
001F0000
001F0000
001F0000
ENDCHAR
STARTCHAR 006
ENCODING 6
SWIDTH 2448 0
DWIDTH 34 0
BBX 30 29 0 15
BITMAP
FF87FC00
FF87FC00
FF87FC00
FF87FC00
FF87FC00
FF87FC00
07F87FC0
07F87FC0
07F87FC0
07F87FC0
07F87FC0
007F83FC
007F83FC
007F83FC
007F83FC
007F83FC
007F83FC
07F87FC0
07F87FC0
07F87FC0
07F87FC0
07F87FC0
07F87FC0
FF87FC00
FF87FC00
FF87FC00
FF87FC00
FF87FC00
FF87FC00
ENDCHAR
STARTCHAR 007
ENCODING 7
SWIDTH 2304 0
DWIDTH 32 0
BBX 27 53 0 3
BITMAP
FFFFFFE0
FFFFFFE0
FFFFFFE0
FFFFFFE0
FFFFFFE0
FFFFFFE0
FC1F03E0
FC1F03E0
FC1F03E0
FC1F03E0
FC1F03E0
FC1F03E0
FC0003E0
FC0003E0
FC0003E0
FC0003E0
FC0003E0
FC0003E0
FC0003E0
FC0003E0
FC0003E0
FC0003E0
FC0003E0
FC0003E0
FC0003E0
FC0003E0
FC0003E0
FC0003E0
FC0003E0
FC0003E0
FC0003E0
FC0003E0
FC0003E0
FC0003E0
FC0003E0
FC0003E0
FC0003E0
FC0003E0
FC0003E0
FC0003E0
FC0003E0
FC1F03E0
FC1F03E0
FC1F03E0
FC1F03E0
FC1F03E0
FC1F03E0
FFFFFFE0
FFFFFFE0
FFFFFFE0
FFFFFFE0
FFFFFFE0
FFFFFFE0
ENDCHAR
STARTCHAR 008
ENCODING 8
SWIDTH 2304 0
DWIDTH 32 0
BBX 27 58 0 -2
BITMAP
001F0000
001F0000
001F0000
001F0000
001F0000
001F0000
03E0FC00
03E0FC00
03E0FC00
03E0FC00
03E0FC00
03E0FC00
03E0FC00
03E0FC00
03E0FC00
03E0FC00
03E0FC00
03E0FC00
03E0FC00
03E0FC00
03E0FC00
03E0FC00
03E0FC00
03E0FC00
03E0FC00
03E0FC00
03E0FC00
03E0FC00
03E0FC00
FC0003E0
FC0003E0
FC0003E0
FC0003E0
FC0003E0
FC0003E0
FC1F03E0
FC1F03E0
FC1F03E0
FC1F03E0
FC1F03E0
FC1F03E0
FC1F03E0
FC1F03E0
FC1F03E0
FC1F03E0
FC1F03E0
FC1F03E0
FC0003E0
FC0003E0
FC0003E0
FC0003E0
FC0003E0
FC0003E0
03FFFC00
03FFFC00
03FFFC00
03FFFC00
03FFFC00
ENDCHAR
STARTCHAR 009
ENCODING 9
SWIDTH 2304 0
DWIDTH 32 0
BBX 16 17 0 27
BITMAP
03E0
03E0
03E0
03E0
03E0
03E0
FC1F
FC1F
FC1F
FC1F
FC1F
03E0
03E0
03E0
03E0
03E0
03E0
ENDCHAR
STARTCHAR 010
ENCODING 10
SWIDTH 1944 0
DWIDTH 27 0
BBX 0 0 0 0
BITMAP
ENDCHAR
STARTCHAR 011
ENCODING 11
SWIDTH 1944 0
DWIDTH 27 0
BBX 0 0 0 0
BITMAP
ENDCHAR
STARTCHAR 012
ENCODING 12
SWIDTH 1944 0
DWIDTH 27 0
BBX 0 0 0 0
BITMAP
ENDCHAR
STARTCHAR 013
ENCODING 13
SWIDTH 1944 0
DWIDTH 27 0
BBX 0 0 0 0
BITMAP
ENDCHAR
STARTCHAR 014
ENCODING 14
SWIDTH 1944 0
DWIDTH 27 0
BBX 0 0 0 0
BITMAP
ENDCHAR
STARTCHAR 015
ENCODING 15
SWIDTH 1944 0
DWIDTH 27 0
BBX 0 0 0 0
BITMAP
ENDCHAR
STARTCHAR 016
ENCODING 16
SWIDTH 1944 0
DWIDTH 27 0
BBX 0 0 0 0
BITMAP
ENDCHAR
STARTCHAR 017
ENCODING 17
SWIDTH 1944 0
DWIDTH 27 0
BBX 0 0 0 0
BITMAP
ENDCHAR
STARTCHAR 018
ENCODING 18
SWIDTH 1944 0
DWIDTH 27 0
BBX 0 0 0 0
BITMAP
ENDCHAR
STARTCHAR 019
ENCODING 19
SWIDTH 1944 0
DWIDTH 27 0
BBX 0 0 0 0
BITMAP
ENDCHAR
STARTCHAR 020
ENCODING 20
SWIDTH 1944 0
DWIDTH 27 0
BBX 0 0 0 0
BITMAP
ENDCHAR
STARTCHAR 021
ENCODING 21
SWIDTH 1944 0
DWIDTH 27 0
BBX 0 0 0 0
BITMAP
ENDCHAR
STARTCHAR 022
ENCODING 22
SWIDTH 1944 0
DWIDTH 27 0
BBX 0 0 0 0
BITMAP
ENDCHAR
STARTCHAR 023
ENCODING 23
SWIDTH 1944 0
DWIDTH 27 0
BBX 0 0 0 0
BITMAP
ENDCHAR
STARTCHAR 024
ENCODING 24
SWIDTH 1944 0
DWIDTH 27 0
BBX 0 0 0 0
BITMAP
ENDCHAR
STARTCHAR 025
ENCODING 25
SWIDTH 1944 0
DWIDTH 27 0
BBX 0 0 0 0
BITMAP
ENDCHAR
STARTCHAR 026
ENCODING 26
SWIDTH 1944 0
DWIDTH 27 0
BBX 0 0 0 0
BITMAP
ENDCHAR
STARTCHAR 027
ENCODING 27
SWIDTH 1944 0
DWIDTH 27 0
BBX 0 0 0 0
BITMAP
ENDCHAR
STARTCHAR 028
ENCODING 28
SWIDTH 1944 0
DWIDTH 27 0
BBX 0 0 0 0
BITMAP
ENDCHAR
STARTCHAR 029
ENCODING 29
SWIDTH 1944 0
DWIDTH 27 0
BBX 0 0 0 0
BITMAP
ENDCHAR
STARTCHAR 030
ENCODING 30
SWIDTH 1944 0
DWIDTH 27 0
BBX 0 0 0 0
BITMAP
ENDCHAR
STARTCHAR 031
ENCODING 31
SWIDTH 1944 0
DWIDTH 27 0
BBX 0 0 0 0
BITMAP
ENDCHAR
STARTCHAR 032
ENCODING 32
SWIDTH 2304 0
DWIDTH 32 0
BBX 0 0 0 0
BITMAP
ENDCHAR
STARTCHAR 033
ENCODING 33
SWIDTH 2304 0
DWIDTH 32 0
BBX 5 41 11 9
BITMAP
F8
F8
F8
F8
F8
F8
F8
F8
F8
F8
F8
F8
F8
F8
F8
F8
F8
F8
F8
F8
F8
F8
F8
F8
F8
F8
F8
F8
F8
00
00
00
00
00
00
F8
F8
F8
F8
F8
F8
ENDCHAR
STARTCHAR 034
ENCODING 34
SWIDTH 2304 0
DWIDTH 32 0
BBX 16 18 6 38
BITMAP
F83F
F83F
F83F
F83F
F83F
F83F
F83F
F83F
F83F
F83F
F83F
F83F
F83F
F83F
F83F
F83F
F83F
F83F
ENDCHAR
STARTCHAR 035
ENCODING 35
SWIDTH 2304 0
DWIDTH 32 0
BBX 27 35 0 9
BITMAP
03E0FC00
03E0FC00
03E0FC00
03E0FC00
03E0FC00
03E0FC00
FFFFFFE0
FFFFFFE0
FFFFFFE0
FFFFFFE0
FFFFFFE0
03E0FC00
03E0FC00
03E0FC00
03E0FC00
03E0FC00
03E0FC00
03E0FC00
03E0FC00
03E0FC00
03E0FC00
03E0FC00
03E0FC00
FFFFFFE0
FFFFFFE0
FFFFFFE0
FFFFFFE0
FFFFFFE0
FFFFFFE0
03E0FC00
03E0FC00
03E0FC00
03E0FC00
03E0FC00
03E0FC00
ENDCHAR
STARTCHAR 036
ENCODING 36
SWIDTH 2304 0
DWIDTH 32 0
BBX 27 53 0 3
BITMAP
001F0000
001F0000
001F0000
001F0000
001F0000
001F0000
03FFFC00
03FFFC00
03FFFC00
03FFFC00
03FFFC00
03FFFC00
FC1F03E0
FC1F03E0
FC1F03E0
FC1F03E0
FC1F03E0
FC1F03E0
FC1F0000
FC1F0000
FC1F0000
FC1F0000
FC1F0000
03FFFC00
03FFFC00
03FFFC00
03FFFC00
03FFFC00
03FFFC00
001F03E0
001F03E0
001F03E0
001F03E0
001F03E0
001F03E0
FC1F03E0
FC1F03E0
FC1F03E0
FC1F03E0
FC1F03E0
FC1F03E0
03FFFC00
03FFFC00
03FFFC00
03FFFC00
03FFFC00
03FFFC00
001F0000
001F0000
001F0000
001F0000
001F0000
001F0000
ENDCHAR
STARTCHAR 037
ENCODING 37
SWIDTH 2304 0
DWIDTH 32 0
BBX 27 41 0 9
BITMAP
FFE003E0
FFE003E0
FFE003E0
FFE003E0
FFE003E0
FFE003E0
FFE003E0
FFE003E0
FFE003E0
FFE003E0
FFE003E0
FFE003E0
0000FC00
0000FC00
0000FC00
0000FC00
0000FC00
001F0000
001F0000
001F0000
001F0000
001F0000
001F0000
03E00000
03E00000
03E00000
03E00000
03E00000
03E00000
FC00FFE0
FC00FFE0
FC00FFE0
FC00FFE0
FC00FFE0
FC00FFE0
FC00FFE0
FC00FFE0
FC00FFE0
FC00FFE0
FC00FFE0
FC00FFE0
ENDCHAR
STARTCHAR 038
ENCODING 38
SWIDTH 2304 0
DWIDTH 32 0
BBX 27 41 0 9
BITMAP
03E00000
03E00000
03E00000
03E00000
03E00000
03E00000
FC1F0000
FC1F0000
FC1F0000
FC1F0000
FC1F0000
FC1F0000
FC1F0000
FC1F0000
FC1F0000
FC1F0000
FC1F0000
03E00000
03E00000
03E00000
03E00000
03E00000
03E00000
FC1F03E0
FC1F03E0
FC1F03E0
FC1F03E0
FC1F03E0
FC1F03E0
FC00FC00
FC00FC00
FC00FC00
FC00FC00
FC00FC00
FC00FC00
03FF03E0
03FF03E0
03FF03E0
03FF03E0
03FF03E0
03FF03E0
ENDCHAR
STARTCHAR 039
ENCODING 39
SWIDTH 2304 0
DWIDTH 32 0
BBX 5 18 11 38
BITMAP
F8
F8
F8
F8
F8
F8
F8
F8
F8
F8
F8
F8
F8
F8
F8
F8
F8
F8
ENDCHAR
STARTCHAR 040
ENCODING 40
SWIDTH 2304 0
DWIDTH 32 0
BBX 16 53 6 3
BITMAP
003F
003F
003F
003F
003F
003F
07C0
07C0
07C0
07C0
07C0
07C0
07C0
07C0
07C0
07C0
07C0
07C0
F800
F800
F800
F800
F800
F800
F800
F800
F800
F800
F800
F800
F800
F800
F800
F800
F800
07C0
07C0
07C0
07C0
07C0
07C0
07C0
07C0
07C0
07C0
07C0
07C0
003F
003F
003F
003F
003F
003F
ENDCHAR
STARTCHAR 041
ENCODING 41
SWIDTH 2304 0
DWIDTH 32 0
BBX 16 53 6 3
BITMAP
F800
F800
F800
F800
F800
F800
07C0
07C0
07C0
07C0
07C0
07C0
07C0
07C0
07C0
07C0
07C0
07C0
003F
003F
003F
003F
003F
003F
003F
003F
003F
003F
003F
003F
003F
003F
003F
003F
003F
07C0
07C0
07C0
07C0
07C0
07C0
07C0
07C0
07C0
07C0
07C0
07C0
F800
F800
F800
F800
F800
F800
ENDCHAR
STARTCHAR 042
ENCODING 42
SWIDTH 2304 0
DWIDTH 32 0
BBX 27 41 0 9
BITMAP
001F0000
001F0000
001F0000
001F0000
001F0000
001F0000
FC1F03E0
FC1F03E0
FC1F03E0
FC1F03E0
FC1F03E0
FC1F03E0
03FFFC00
03FFFC00
03FFFC00
03FFFC00
03FFFC00
001F0000
001F0000
001F0000
001F0000
001F0000
001F0000
03FFFC00
03FFFC00
03FFFC00
03FFFC00
03FFFC00
03FFFC00
FC1F03E0
FC1F03E0
FC1F03E0
FC1F03E0
FC1F03E0
FC1F03E0
001F0000
001F0000
001F0000
001F0000
001F0000
001F0000
ENDCHAR
STARTCHAR 043
ENCODING 43
SWIDTH 2304 0
DWIDTH 32 0
BBX 27 29 0 15
BITMAP
001F0000
001F0000
001F0000
001F0000
001F0000
001F0000
001F0000
001F0000
001F0000
001F0000
001F0000
FFFFFFE0
FFFFFFE0
FFFFFFE0
FFFFFFE0
FFFFFFE0
FFFFFFE0
001F0000
001F0000
001F0000
001F0000
001F0000
001F0000
001F0000
001F0000
001F0000
001F0000
001F0000
001F0000
ENDCHAR
STARTCHAR 044
ENCODING 44
SWIDTH 2304 0
DWIDTH 32 0
BBX 10 18 6 3
BITMAP
FFC0
FFC0
FFC0
FFC0
FFC0
FFC0
07C0
07C0
07C0
07C0
07C0
07C0
F800
F800
F800
F800
F800
F800
ENDCHAR
STARTCHAR 045
ENCODING 45
SWIDTH 2304 0
DWIDTH 32 0
BBX 27 6 0 27
BITMAP
FFFFFFE0
FFFFFFE0
FFFFFFE0
FFFFFFE0
FFFFFFE0
FFFFFFE0
ENDCHAR
STARTCHAR 046
ENCODING 46
SWIDTH 2304 0
DWIDTH 32 0
BBX 10 12 6 9
BITMAP
FFC0
FFC0
FFC0
FFC0
FFC0
FFC0
FFC0
FFC0
FFC0
FFC0
FFC0
FFC0
ENDCHAR
STARTCHAR 047
ENCODING 47
SWIDTH 2304 0
DWIDTH 32 0
BBX 27 41 0 9
BITMAP
000003E0
000003E0
000003E0
000003E0
000003E0
000003E0
0000FC00
0000FC00
0000FC00
0000FC00
0000FC00
0000FC00
0000FC00
0000FC00
0000FC00
0000FC00
0000FC00
001F0000
001F0000
001F0000
001F0000
001F0000
001F0000
03E00000
03E00000
03E00000
03E00000
03E00000
03E00000
03E00000
03E00000
03E00000
03E00000
03E00000
03E00000
FC000000
FC000000
FC000000
FC000000
FC000000
FC000000
ENDCHAR
STARTCHAR 048
ENCODING 48
SWIDTH 2304 0
DWIDTH 32 0
BBX 27 41 0 9
BITMAP
03FFFC00
03FFFC00
03FFFC00
03FFFC00
03FFFC00
03FFFC00
FC0003E0
FC0003E0
FC0003E0
FC0003E0
FC0003E0
FC0003E0
FC00FFE0
FC00FFE0
FC00FFE0
FC00FFE0
FC00FFE0
FC1F03E0
FC1F03E0
FC1F03E0
FC1F03E0
FC1F03E0
FC1F03E0
FFE003E0
FFE003E0
FFE003E0
FFE003E0
FFE003E0
FFE003E0
FC0003E0
FC0003E0
FC0003E0
FC0003E0
FC0003E0
FC0003E0
03FFFC00
03FFFC00
03FFFC00
03FFFC00
03FFFC00
03FFFC00
ENDCHAR
STARTCHAR 049
ENCODING 49
SWIDTH 2304 0
DWIDTH 32 0
BBX 16 41 6 9
BITMAP
07C0
07C0
07C0
07C0
07C0
07C0
FFC0
FFC0
FFC0
FFC0
FFC0
FFC0
07C0
07C0
07C0
07C0
07C0
07C0
07C0
07C0
07C0
07C0
07C0
07C0
07C0
07C0
07C0
07C0
07C0
07C0
07C0
07C0
07C0
07C0
07C0
FFFF
FFFF
FFFF
FFFF
FFFF
FFFF
ENDCHAR
STARTCHAR 050
ENCODING 50
SWIDTH 2304 0
DWIDTH 32 0
BBX 27 41 0 9
BITMAP
03FFFC00
03FFFC00
03FFFC00
03FFFC00
03FFFC00
03FFFC00
FC0003E0
FC0003E0
FC0003E0
FC0003E0
FC0003E0
FC0003E0
000003E0
000003E0
000003E0
000003E0
000003E0
0000FC00
0000FC00
0000FC00
0000FC00
0000FC00
0000FC00
001F0000
001F0000
001F0000
001F0000
001F0000
001F0000
03E00000
03E00000
03E00000
03E00000
03E00000
03E00000
FFFFFFE0
FFFFFFE0
FFFFFFE0
FFFFFFE0
FFFFFFE0
FFFFFFE0
ENDCHAR
STARTCHAR 051
ENCODING 51
SWIDTH 2304 0
DWIDTH 32 0
BBX 27 41 0 9
BITMAP
FFFFFFE0
FFFFFFE0
FFFFFFE0
FFFFFFE0
FFFFFFE0
FFFFFFE0
000003E0
000003E0
000003E0
000003E0
000003E0
000003E0
0000FC00
0000FC00
0000FC00
0000FC00
0000FC00
001FFC00
001FFC00
001FFC00
001FFC00
001FFC00
001FFC00
000003E0
000003E0
000003E0
000003E0
000003E0
000003E0
FC0003E0
FC0003E0
FC0003E0
FC0003E0
FC0003E0
FC0003E0
03FFFC00
03FFFC00
03FFFC00
03FFFC00
03FFFC00
03FFFC00
ENDCHAR
STARTCHAR 052
ENCODING 52
SWIDTH 2304 0
DWIDTH 32 0
BBX 27 41 0 9
BITMAP
0000FC00
0000FC00
0000FC00
0000FC00
0000FC00
0000FC00
001FFC00
001FFC00
001FFC00
001FFC00
001FFC00
001FFC00
03E0FC00
03E0FC00
03E0FC00
03E0FC00
03E0FC00
FC00FC00
FC00FC00
FC00FC00
FC00FC00
FC00FC00
FC00FC00
FFFFFFE0
FFFFFFE0
FFFFFFE0
FFFFFFE0
FFFFFFE0
FFFFFFE0
0000FC00
0000FC00
0000FC00
0000FC00
0000FC00
0000FC00
0000FC00
0000FC00
0000FC00
0000FC00
0000FC00
0000FC00
ENDCHAR
STARTCHAR 053
ENCODING 53
SWIDTH 2304 0
DWIDTH 32 0
BBX 27 41 0 9
BITMAP
FFFFFFE0
FFFFFFE0
FFFFFFE0
FFFFFFE0
FFFFFFE0
FFFFFFE0
FC000000
FC000000
FC000000
FC000000
FC000000
FC000000
FFFFFC00
FFFFFC00
FFFFFC00
FFFFFC00
FFFFFC00
000003E0
000003E0
000003E0
000003E0
000003E0
000003E0
000003E0
000003E0
000003E0
000003E0
000003E0
000003E0
FC0003E0
FC0003E0
FC0003E0
FC0003E0
FC0003E0
FC0003E0
03FFFC00
03FFFC00
03FFFC00
03FFFC00
03FFFC00
03FFFC00
ENDCHAR
STARTCHAR 054
ENCODING 54
SWIDTH 2304 0
DWIDTH 32 0
BBX 27 41 0 9
BITMAP
001FFC00
001FFC00
001FFC00
001FFC00
001FFC00
001FFC00
03E00000
03E00000
03E00000
03E00000
03E00000
03E00000
FC000000
FC000000
FC000000
FC000000
FC000000
FFFFFC00
FFFFFC00
FFFFFC00
FFFFFC00
FFFFFC00
FFFFFC00
FC0003E0
FC0003E0
FC0003E0
FC0003E0
FC0003E0
FC0003E0
FC0003E0
FC0003E0
FC0003E0
FC0003E0
FC0003E0
FC0003E0
03FFFC00
03FFFC00
03FFFC00
03FFFC00
03FFFC00
03FFFC00
ENDCHAR
STARTCHAR 055
ENCODING 55
SWIDTH 2304 0
DWIDTH 32 0
BBX 27 41 0 9
BITMAP
FFFFFFE0
FFFFFFE0
FFFFFFE0
FFFFFFE0
FFFFFFE0
FFFFFFE0
000003E0
000003E0
000003E0
000003E0
000003E0
000003E0
0000FC00
0000FC00
0000FC00
0000FC00
0000FC00
0000FC00
0000FC00
0000FC00
0000FC00
0000FC00
0000FC00
001F0000
001F0000
001F0000
001F0000
001F0000
001F0000
001F0000
001F0000
001F0000
001F0000
001F0000
001F0000
001F0000
001F0000
001F0000
001F0000
001F0000
001F0000
ENDCHAR
STARTCHAR 056
ENCODING 56
SWIDTH 2304 0
DWIDTH 32 0
BBX 27 41 0 9
BITMAP
03FFFC00
03FFFC00
03FFFC00
03FFFC00
03FFFC00
03FFFC00
FC0003E0
FC0003E0
FC0003E0
FC0003E0
FC0003E0
FC0003E0
FC0003E0
FC0003E0
FC0003E0
FC0003E0
FC0003E0
03FFFC00
03FFFC00
03FFFC00
03FFFC00
03FFFC00
03FFFC00
FC0003E0
FC0003E0
FC0003E0
FC0003E0
FC0003E0
FC0003E0
FC0003E0
FC0003E0
FC0003E0
FC0003E0
FC0003E0
FC0003E0
03FFFC00
03FFFC00
03FFFC00
03FFFC00
03FFFC00
03FFFC00
ENDCHAR
STARTCHAR 057
ENCODING 57
SWIDTH 2304 0
DWIDTH 32 0
BBX 27 41 0 9
BITMAP
03FFFC00
03FFFC00
03FFFC00
03FFFC00
03FFFC00
03FFFC00
FC0003E0
FC0003E0
FC0003E0
FC0003E0
FC0003E0
FC0003E0
FC0003E0
FC0003E0
FC0003E0
FC0003E0
FC0003E0
03FFFFE0
03FFFFE0
03FFFFE0
03FFFFE0
03FFFFE0
03FFFFE0
000003E0
000003E0
000003E0
000003E0
000003E0
000003E0
0000FC00
0000FC00
0000FC00
0000FC00
0000FC00
0000FC00
03FF0000
03FF0000
03FF0000
03FF0000
03FF0000
03FF0000
ENDCHAR
STARTCHAR 058
ENCODING 58
SWIDTH 2304 0
DWIDTH 32 0
BBX 10 29 6 9
BITMAP
FFC0
FFC0
FFC0
FFC0
FFC0
FFC0
FFC0
FFC0
FFC0
FFC0
FFC0
0000
0000
0000
0000
0000
0000
FFC0
FFC0
FFC0
FFC0
FFC0
FFC0
FFC0
FFC0
FFC0
FFC0
FFC0
FFC0
ENDCHAR
STARTCHAR 059
ENCODING 59
SWIDTH 2304 0
DWIDTH 32 0
BBX 10 35 6 3
BITMAP
FFC0
FFC0
FFC0
FFC0
FFC0
FFC0
FFC0
FFC0
FFC0
FFC0
FFC0
0000
0000
0000
0000
0000
0000
FFC0
FFC0
FFC0
FFC0
FFC0
FFC0
07C0
07C0
07C0
07C0
07C0
07C0
F800
F800
F800
F800
F800
F800
ENDCHAR
STARTCHAR 060
ENCODING 60
SWIDTH 2304 0
DWIDTH 32 0
BBX 16 29 6 15
BITMAP
003F
003F
003F
003F
003F
003F
07C0
07C0
07C0
07C0
07C0
F800
F800
F800
F800
F800
F800
07C0
07C0
07C0
07C0
07C0
07C0
003F
003F
003F
003F
003F
003F
ENDCHAR
STARTCHAR 061
ENCODING 61
SWIDTH 2304 0
DWIDTH 32 0
BBX 27 17 0 21
BITMAP
FFFFFFE0
FFFFFFE0
FFFFFFE0
FFFFFFE0
FFFFFFE0
00000000
00000000
00000000
00000000
00000000
00000000
FFFFFFE0
FFFFFFE0
FFFFFFE0
FFFFFFE0
FFFFFFE0
FFFFFFE0
ENDCHAR
STARTCHAR 062
ENCODING 62
SWIDTH 2304 0
DWIDTH 32 0
BBX 16 29 6 15
BITMAP
F800
F800
F800
F800
F800
F800
07C0
07C0
07C0
07C0
07C0
003F
003F
003F
003F
003F
003F
07C0
07C0
07C0
07C0
07C0
07C0
F800
F800
F800
F800
F800
F800
ENDCHAR
STARTCHAR 063
ENCODING 63
SWIDTH 2304 0
DWIDTH 32 0
BBX 27 41 0 9
BITMAP
03FFFC00
03FFFC00
03FFFC00
03FFFC00
03FFFC00
03FFFC00
FC0003E0
FC0003E0
FC0003E0
FC0003E0
FC0003E0
FC0003E0
0000FC00
0000FC00
0000FC00
0000FC00
0000FC00
001F0000
001F0000
001F0000
001F0000
001F0000
001F0000
001F0000
001F0000
001F0000
001F0000
001F0000
001F0000
00000000
00000000
00000000
00000000
00000000
00000000
001F0000
001F0000
001F0000
001F0000
001F0000
001F0000
ENDCHAR
STARTCHAR 064
ENCODING 64
SWIDTH 2304 0
DWIDTH 32 0
BBX 27 41 0 9
BITMAP
03FFFC00
03FFFC00
03FFFC00
03FFFC00
03FFFC00
03FFFC00
FC0003E0
FC0003E0
FC0003E0
FC0003E0
FC0003E0
FC0003E0
FC1FFFE0
FC1FFFE0
FC1FFFE0
FC1FFFE0
FC1FFFE0
FC1F03E0
FC1F03E0
FC1F03E0
FC1F03E0
FC1F03E0
FC1F03E0
FC1FFFE0
FC1FFFE0
FC1FFFE0
FC1FFFE0
FC1FFFE0
FC1FFFE0
FC000000
FC000000
FC000000
FC000000
FC000000
FC000000
03FFFC00
03FFFC00
03FFFC00
03FFFC00
03FFFC00
03FFFC00
ENDCHAR
STARTCHAR 065
ENCODING 65
SWIDTH 2304 0
DWIDTH 32 0
BBX 27 41 0 9
BITMAP
03FFFC00
03FFFC00
03FFFC00
03FFFC00
03FFFC00
03FFFC00
FC0003E0
FC0003E0
FC0003E0
FC0003E0
FC0003E0
FC0003E0
FC0003E0
FC0003E0
FC0003E0
FC0003E0
FC0003E0
FFFFFFE0
FFFFFFE0
FFFFFFE0
FFFFFFE0
FFFFFFE0
FFFFFFE0
FC0003E0
FC0003E0
FC0003E0
FC0003E0
FC0003E0
FC0003E0
FC0003E0
FC0003E0
FC0003E0
FC0003E0
FC0003E0
FC0003E0
FC0003E0
FC0003E0
FC0003E0
FC0003E0
FC0003E0
FC0003E0
ENDCHAR
STARTCHAR 066
ENCODING 66
SWIDTH 2304 0
DWIDTH 32 0
BBX 27 41 0 9
BITMAP
FFFFFC00
FFFFFC00
FFFFFC00
FFFFFC00
FFFFFC00
FFFFFC00
03E003E0
03E003E0
03E003E0
03E003E0
03E003E0
03E003E0
03E003E0
03E003E0
03E003E0
03E003E0
03E003E0
03FFFC00
03FFFC00
03FFFC00
03FFFC00
03FFFC00
03FFFC00
03E003E0
03E003E0
03E003E0
03E003E0
03E003E0
03E003E0
03E003E0
03E003E0
03E003E0
03E003E0
03E003E0
03E003E0
FFFFFC00
FFFFFC00
FFFFFC00
FFFFFC00
FFFFFC00
FFFFFC00
ENDCHAR
STARTCHAR 067
ENCODING 67
SWIDTH 2304 0
DWIDTH 32 0
BBX 27 41 0 9
BITMAP
03FFFC00
03FFFC00
03FFFC00
03FFFC00
03FFFC00
03FFFC00
FC0003E0
FC0003E0
FC0003E0
FC0003E0
FC0003E0
FC0003E0
FC000000
FC000000
FC000000
FC000000
FC000000
FC000000
FC000000
FC000000
FC000000
FC000000
FC000000
FC000000
FC000000
FC000000
FC000000
FC000000
FC000000
FC0003E0
FC0003E0
FC0003E0
FC0003E0
FC0003E0
FC0003E0
03FFFC00
03FFFC00
03FFFC00
03FFFC00
03FFFC00
03FFFC00
ENDCHAR
STARTCHAR 068
ENCODING 68
SWIDTH 2304 0
DWIDTH 32 0
BBX 27 41 0 9
BITMAP
FFFFFC00
FFFFFC00
FFFFFC00
FFFFFC00
FFFFFC00
FFFFFC00
03E003E0
03E003E0
03E003E0
03E003E0
03E003E0
03E003E0
03E003E0
03E003E0
03E003E0
03E003E0
03E003E0
03E003E0
03E003E0
03E003E0
03E003E0
03E003E0
03E003E0
03E003E0
03E003E0
03E003E0
03E003E0
03E003E0
03E003E0
03E003E0
03E003E0
03E003E0
03E003E0
03E003E0
03E003E0
FFFFFC00
FFFFFC00
FFFFFC00
FFFFFC00
FFFFFC00
FFFFFC00
ENDCHAR
STARTCHAR 069
ENCODING 69
SWIDTH 2304 0
DWIDTH 32 0
BBX 27 41 0 9
BITMAP
FFFFFFE0
FFFFFFE0
FFFFFFE0
FFFFFFE0
FFFFFFE0
FFFFFFE0
FC000000
FC000000
FC000000
FC000000
FC000000
FC000000
FC000000
FC000000
FC000000
FC000000
FC000000
FFFFFC00
FFFFFC00
FFFFFC00
FFFFFC00
FFFFFC00
FFFFFC00
FC000000
FC000000
FC000000
FC000000
FC000000
FC000000
FC000000
FC000000
FC000000
FC000000
FC000000
FC000000
FFFFFFE0
FFFFFFE0
FFFFFFE0
FFFFFFE0
FFFFFFE0
FFFFFFE0
ENDCHAR
STARTCHAR 070
ENCODING 70
SWIDTH 2304 0
DWIDTH 32 0
BBX 27 41 0 9
BITMAP
FFFFFFE0
FFFFFFE0
FFFFFFE0
FFFFFFE0
FFFFFFE0
FFFFFFE0
FC000000
FC000000
FC000000
FC000000
FC000000
FC000000
FC000000
FC000000
FC000000
FC000000
FC000000
FFFFFC00
FFFFFC00
FFFFFC00
FFFFFC00
FFFFFC00
FFFFFC00
FC000000
FC000000
FC000000
FC000000
FC000000
FC000000
FC000000
FC000000
FC000000
FC000000
FC000000
FC000000
FC000000
FC000000
FC000000
FC000000
FC000000
FC000000
ENDCHAR
STARTCHAR 071
ENCODING 71
SWIDTH 2304 0
DWIDTH 32 0
BBX 27 41 0 9
BITMAP
03FFFC00
03FFFC00
03FFFC00
03FFFC00
03FFFC00
03FFFC00
FC0003E0
FC0003E0
FC0003E0
FC0003E0
FC0003E0
FC0003E0
FC000000
FC000000
FC000000
FC000000
FC000000
FC000000
FC000000
FC000000
FC000000
FC000000
FC000000
FC00FFE0
FC00FFE0
FC00FFE0
FC00FFE0
FC00FFE0
FC00FFE0
FC0003E0
FC0003E0
FC0003E0
FC0003E0
FC0003E0
FC0003E0
03FFFC00
03FFFC00
03FFFC00
03FFFC00
03FFFC00
03FFFC00
ENDCHAR
STARTCHAR 072
ENCODING 72
SWIDTH 2304 0
DWIDTH 32 0
BBX 27 41 0 9
BITMAP
FC0003E0
FC0003E0
FC0003E0
FC0003E0
FC0003E0
FC0003E0
FC0003E0
FC0003E0
FC0003E0
FC0003E0
FC0003E0
FC0003E0
FC0003E0
FC0003E0
FC0003E0
FC0003E0
FC0003E0
FFFFFFE0
FFFFFFE0
FFFFFFE0
FFFFFFE0
FFFFFFE0
FFFFFFE0
FC0003E0
FC0003E0
FC0003E0
FC0003E0
FC0003E0
FC0003E0
FC0003E0
FC0003E0
FC0003E0
FC0003E0
FC0003E0
FC0003E0
FC0003E0
FC0003E0
FC0003E0
FC0003E0
FC0003E0
FC0003E0
ENDCHAR
STARTCHAR 073
ENCODING 73
SWIDTH 2304 0
DWIDTH 32 0
BBX 16 41 6 9
BITMAP
FFFF
FFFF
FFFF
FFFF
FFFF
FFFF
07C0
07C0
07C0
07C0
07C0
07C0
07C0
07C0
07C0
07C0
07C0
07C0
07C0
07C0
07C0
07C0
07C0
07C0
07C0
07C0
07C0
07C0
07C0
07C0
07C0
07C0
07C0
07C0
07C0
FFFF
FFFF
FFFF
FFFF
FFFF
FFFF
ENDCHAR
STARTCHAR 074
ENCODING 74
SWIDTH 2304 0
DWIDTH 32 0
BBX 27 41 0 9
BITMAP
001FFFE0
001FFFE0
001FFFE0
001FFFE0
001FFFE0
001FFFE0
0000FC00
0000FC00
0000FC00
0000FC00
0000FC00
0000FC00
0000FC00
0000FC00
0000FC00
0000FC00
0000FC00
0000FC00
0000FC00
0000FC00
0000FC00
0000FC00
0000FC00
0000FC00
0000FC00
0000FC00
0000FC00
0000FC00
0000FC00
FC00FC00
FC00FC00
FC00FC00
FC00FC00
FC00FC00
FC00FC00
03FF0000
03FF0000
03FF0000
03FF0000
03FF0000
03FF0000
ENDCHAR
STARTCHAR 075
ENCODING 75
SWIDTH 2304 0
DWIDTH 32 0
BBX 27 41 0 9
BITMAP
FC0003E0
FC0003E0
FC0003E0
FC0003E0
FC0003E0
FC0003E0
FC00FC00
FC00FC00
FC00FC00
FC00FC00
FC00FC00
FC00FC00
FC1F0000
FC1F0000
FC1F0000
FC1F0000
FC1F0000
FFE00000
FFE00000
FFE00000
FFE00000
FFE00000
FFE00000
FC1F0000
FC1F0000
FC1F0000
FC1F0000
FC1F0000
FC1F0000
FC00FC00
FC00FC00
FC00FC00
FC00FC00
FC00FC00
FC00FC00
FC0003E0
FC0003E0
FC0003E0
FC0003E0
FC0003E0
FC0003E0
ENDCHAR
STARTCHAR 076
ENCODING 76
SWIDTH 2304 0
DWIDTH 32 0
BBX 27 41 0 9
BITMAP
FC000000
FC000000
FC000000
FC000000
FC000000
FC000000
FC000000
FC000000
FC000000
FC000000
FC000000
FC000000
FC000000
FC000000
FC000000
FC000000
FC000000
FC000000
FC000000
FC000000
FC000000
FC000000
FC000000
FC000000
FC000000
FC000000
FC000000
FC000000
FC000000
FC000000
FC000000
FC000000
FC000000
FC000000
FC000000
FFFFFFE0
FFFFFFE0
FFFFFFE0
FFFFFFE0
FFFFFFE0
FFFFFFE0
ENDCHAR
STARTCHAR 077
ENCODING 77
SWIDTH 2304 0
DWIDTH 32 0
BBX 27 41 0 9
BITMAP
FC0003E0
FC0003E0
FC0003E0
FC0003E0
FC0003E0
FC0003E0
FFE0FFE0
FFE0FFE0
FFE0FFE0
FFE0FFE0
FFE0FFE0
FFE0FFE0
FC1F03E0
FC1F03E0
FC1F03E0
FC1F03E0
FC1F03E0
FC0003E0
FC0003E0
FC0003E0
FC0003E0
FC0003E0
FC0003E0
FC0003E0
FC0003E0
FC0003E0
FC0003E0
FC0003E0
FC0003E0
FC0003E0
FC0003E0
FC0003E0
FC0003E0
FC0003E0
FC0003E0
FC0003E0
FC0003E0
FC0003E0
FC0003E0
FC0003E0
FC0003E0
ENDCHAR
STARTCHAR 078
ENCODING 78
SWIDTH 2304 0
DWIDTH 32 0
BBX 27 41 0 9
BITMAP
FC0003E0
FC0003E0
FC0003E0
FC0003E0
FC0003E0
FC0003E0
FC0003E0
FC0003E0
FC0003E0
FC0003E0
FC0003E0
FC0003E0
FFE003E0
FFE003E0
FFE003E0
FFE003E0
FFE003E0
FC1F03E0
FC1F03E0
FC1F03E0
FC1F03E0
FC1F03E0
FC1F03E0
FC00FFE0
FC00FFE0
FC00FFE0
FC00FFE0
FC00FFE0
FC00FFE0
FC0003E0
FC0003E0
FC0003E0
FC0003E0
FC0003E0
FC0003E0
FC0003E0
FC0003E0
FC0003E0
FC0003E0
FC0003E0
FC0003E0
ENDCHAR
STARTCHAR 079
ENCODING 79
SWIDTH 2304 0
DWIDTH 32 0
BBX 27 41 0 9
BITMAP
03FFFC00
03FFFC00
03FFFC00
03FFFC00
03FFFC00
03FFFC00
FC0003E0
FC0003E0
FC0003E0
FC0003E0
FC0003E0
FC0003E0
FC0003E0
FC0003E0
FC0003E0
FC0003E0
FC0003E0
FC0003E0
FC0003E0
FC0003E0
FC0003E0
FC0003E0
FC0003E0
FC0003E0
FC0003E0
FC0003E0
FC0003E0
FC0003E0
FC0003E0
FC0003E0
FC0003E0
FC0003E0
FC0003E0
FC0003E0
FC0003E0
03FFFC00
03FFFC00
03FFFC00
03FFFC00
03FFFC00
03FFFC00
ENDCHAR
STARTCHAR 080
ENCODING 80
SWIDTH 2304 0
DWIDTH 32 0
BBX 27 41 0 9
BITMAP
FFFFFC00
FFFFFC00
FFFFFC00
FFFFFC00
FFFFFC00
FFFFFC00
FC0003E0
FC0003E0
FC0003E0
FC0003E0
FC0003E0
FC0003E0
FC0003E0
FC0003E0
FC0003E0
FC0003E0
FC0003E0
FFFFFC00
FFFFFC00
FFFFFC00
FFFFFC00
FFFFFC00
FFFFFC00
FC000000
FC000000
FC000000
FC000000
FC000000
FC000000
FC000000
FC000000
FC000000
FC000000
FC000000
FC000000
FC000000
FC000000
FC000000
FC000000
FC000000
FC000000
ENDCHAR
STARTCHAR 081
ENCODING 81
SWIDTH 2304 0
DWIDTH 32 0
BBX 27 41 0 9
BITMAP
03FFFC00
03FFFC00
03FFFC00
03FFFC00
03FFFC00
03FFFC00
FC0003E0
FC0003E0
FC0003E0
FC0003E0
FC0003E0
FC0003E0
FC0003E0
FC0003E0
FC0003E0
FC0003E0
FC0003E0
FC0003E0
FC0003E0
FC0003E0
FC0003E0
FC0003E0
FC0003E0
FC1F03E0
FC1F03E0
FC1F03E0
FC1F03E0
FC1F03E0
FC1F03E0
FC00FC00
FC00FC00
FC00FC00
FC00FC00
FC00FC00
FC00FC00
03FF03E0
03FF03E0
03FF03E0
03FF03E0
03FF03E0
03FF03E0
ENDCHAR
STARTCHAR 082
ENCODING 82
SWIDTH 2304 0
DWIDTH 32 0
BBX 27 41 0 9
BITMAP
FFFFFC00
FFFFFC00
FFFFFC00
FFFFFC00
FFFFFC00
FFFFFC00
FC0003E0
FC0003E0
FC0003E0
FC0003E0
FC0003E0
FC0003E0
FC0003E0
FC0003E0
FC0003E0
FC0003E0
FC0003E0
FFFFFC00
FFFFFC00
FFFFFC00
FFFFFC00
FFFFFC00
FFFFFC00
FC1F0000
FC1F0000
FC1F0000
FC1F0000
FC1F0000
FC1F0000
FC00FC00
FC00FC00
FC00FC00
FC00FC00
FC00FC00
FC00FC00
FC0003E0
FC0003E0
FC0003E0
FC0003E0
FC0003E0
FC0003E0
ENDCHAR
STARTCHAR 083
ENCODING 83
SWIDTH 2304 0
DWIDTH 32 0
BBX 27 41 0 9
BITMAP
03FFFC00
03FFFC00
03FFFC00
03FFFC00
03FFFC00
03FFFC00
FC0003E0
FC0003E0
FC0003E0
FC0003E0
FC0003E0
FC0003E0
FC000000
FC000000
FC000000
FC000000
FC000000
03FFFC00
03FFFC00
03FFFC00
03FFFC00
03FFFC00
03FFFC00
000003E0
000003E0
000003E0
000003E0
000003E0
000003E0
FC0003E0
FC0003E0
FC0003E0
FC0003E0
FC0003E0
FC0003E0
03FFFC00
03FFFC00
03FFFC00
03FFFC00
03FFFC00
03FFFC00
ENDCHAR
STARTCHAR 084
ENCODING 84
SWIDTH 2304 0
DWIDTH 32 0
BBX 27 41 0 9
BITMAP
FFFFFFE0
FFFFFFE0
FFFFFFE0
FFFFFFE0
FFFFFFE0
FFFFFFE0
001F0000
001F0000
001F0000
001F0000
001F0000
001F0000
001F0000
001F0000
001F0000
001F0000
001F0000
001F0000
001F0000
001F0000
001F0000
001F0000
001F0000
001F0000
001F0000
001F0000
001F0000
001F0000
001F0000
001F0000
001F0000
001F0000
001F0000
001F0000
001F0000
001F0000
001F0000
001F0000
001F0000
001F0000
001F0000
ENDCHAR
STARTCHAR 085
ENCODING 85
SWIDTH 2304 0
DWIDTH 32 0
BBX 27 41 0 9
BITMAP
FC0003E0
FC0003E0
FC0003E0
FC0003E0
FC0003E0
FC0003E0
FC0003E0
FC0003E0
FC0003E0
FC0003E0
FC0003E0
FC0003E0
FC0003E0
FC0003E0
FC0003E0
FC0003E0
FC0003E0
FC0003E0
FC0003E0
FC0003E0
FC0003E0
FC0003E0
FC0003E0
FC0003E0
FC0003E0
FC0003E0
FC0003E0
FC0003E0
FC0003E0
FC0003E0
FC0003E0
FC0003E0
FC0003E0
FC0003E0
FC0003E0
03FFFC00
03FFFC00
03FFFC00
03FFFC00
03FFFC00
03FFFC00
ENDCHAR
STARTCHAR 086
ENCODING 86
SWIDTH 2304 0
DWIDTH 32 0
BBX 27 41 0 9
BITMAP
FC0003E0
FC0003E0
FC0003E0
FC0003E0
FC0003E0
FC0003E0
FC0003E0
FC0003E0
FC0003E0
FC0003E0
FC0003E0
FC0003E0
FC0003E0
FC0003E0
FC0003E0
FC0003E0
FC0003E0
FC0003E0
FC0003E0
FC0003E0
FC0003E0
FC0003E0
FC0003E0
03E0FC00
03E0FC00
03E0FC00
03E0FC00
03E0FC00
03E0FC00
03E0FC00
03E0FC00
03E0FC00
03E0FC00
03E0FC00
03E0FC00
001F0000
001F0000
001F0000
001F0000
001F0000
001F0000
ENDCHAR
STARTCHAR 087
ENCODING 87
SWIDTH 2304 0
DWIDTH 32 0
BBX 27 41 0 9
BITMAP
FC0003E0
FC0003E0
FC0003E0
FC0003E0
FC0003E0
FC0003E0
FC0003E0
FC0003E0
FC0003E0
FC0003E0
FC0003E0
FC0003E0
FC0003E0
FC0003E0
FC0003E0
FC0003E0
FC0003E0
FC0003E0
FC0003E0
FC0003E0
FC0003E0
FC0003E0
FC0003E0
FC1F03E0
FC1F03E0
FC1F03E0
FC1F03E0
FC1F03E0
FC1F03E0
FC1F03E0
FC1F03E0
FC1F03E0
FC1F03E0
FC1F03E0
FC1F03E0
03E0FC00
03E0FC00
03E0FC00
03E0FC00
03E0FC00
03E0FC00
ENDCHAR
STARTCHAR 088
ENCODING 88
SWIDTH 2304 0
DWIDTH 32 0
BBX 27 41 0 9
BITMAP
FC0003E0
FC0003E0
FC0003E0
FC0003E0
FC0003E0
FC0003E0
FC0003E0
FC0003E0
FC0003E0
FC0003E0
FC0003E0
FC0003E0
03E0FC00
03E0FC00
03E0FC00
03E0FC00
03E0FC00
001F0000
001F0000
001F0000
001F0000
001F0000
001F0000
03E0FC00
03E0FC00
03E0FC00
03E0FC00
03E0FC00
03E0FC00
FC0003E0
FC0003E0
FC0003E0
FC0003E0
FC0003E0
FC0003E0
FC0003E0
FC0003E0
FC0003E0
FC0003E0
FC0003E0
FC0003E0
ENDCHAR
STARTCHAR 089
ENCODING 89
SWIDTH 2304 0
DWIDTH 32 0
BBX 27 41 0 9
BITMAP
FC0003E0
FC0003E0
FC0003E0
FC0003E0
FC0003E0
FC0003E0
FC0003E0
FC0003E0
FC0003E0
FC0003E0
FC0003E0
FC0003E0
03E0FC00
03E0FC00
03E0FC00
03E0FC00
03E0FC00
001F0000
001F0000
001F0000
001F0000
001F0000
001F0000
001F0000
001F0000
001F0000
001F0000
001F0000
001F0000
001F0000
001F0000
001F0000
001F0000
001F0000
001F0000
001F0000
001F0000
001F0000
001F0000
001F0000
001F0000
ENDCHAR
STARTCHAR 090
ENCODING 90
SWIDTH 2304 0
DWIDTH 32 0
BBX 27 41 0 9
BITMAP
FFFFFFE0
FFFFFFE0
FFFFFFE0
FFFFFFE0
FFFFFFE0
FFFFFFE0
000003E0
000003E0
000003E0
000003E0
000003E0
000003E0
0000FC00
0000FC00
0000FC00
0000FC00
0000FC00
001F0000
001F0000
001F0000
001F0000
001F0000
001F0000
03E00000
03E00000
03E00000
03E00000
03E00000
03E00000
FC000000
FC000000
FC000000
FC000000
FC000000
FC000000
FFFFFFE0
FFFFFFE0
FFFFFFE0
FFFFFFE0
FFFFFFE0
FFFFFFE0
ENDCHAR
STARTCHAR 091
ENCODING 91
SWIDTH 2304 0
DWIDTH 32 0
BBX 16 53 6 3
BITMAP
FFFF
FFFF
FFFF
FFFF
FFFF
FFFF
F800
F800
F800
F800
F800
F800
F800
F800
F800
F800
F800
F800
F800
F800
F800
F800
F800
F800
F800
F800
F800
F800
F800
F800
F800
F800
F800
F800
F800
F800
F800
F800
F800
F800
F800
F800
F800
F800
F800
F800
F800
FFFF
FFFF
FFFF
FFFF
FFFF
FFFF
ENDCHAR
STARTCHAR 092
ENCODING 92
SWIDTH 2304 0
DWIDTH 32 0
BBX 27 41 0 9
BITMAP
FC000000
FC000000
FC000000
FC000000
FC000000
FC000000
03E00000
03E00000
03E00000
03E00000
03E00000
03E00000
03E00000
03E00000
03E00000
03E00000
03E00000
001F0000
001F0000
001F0000
001F0000
001F0000
001F0000
0000FC00
0000FC00
0000FC00
0000FC00
0000FC00
0000FC00
0000FC00
0000FC00
0000FC00
0000FC00
0000FC00
0000FC00
000003E0
000003E0
000003E0
000003E0
000003E0
000003E0
ENDCHAR
STARTCHAR 093
ENCODING 93
SWIDTH 2304 0
DWIDTH 32 0
BBX 16 53 6 3
BITMAP
FFFF
FFFF
FFFF
FFFF
FFFF
FFFF
003F
003F
003F
003F
003F
003F
003F
003F
003F
003F
003F
003F
003F
003F
003F
003F
003F
003F
003F
003F
003F
003F
003F
003F
003F
003F
003F
003F
003F
003F
003F
003F
003F
003F
003F
003F
003F
003F
003F
003F
003F
FFFF
FFFF
FFFF
FFFF
FFFF
FFFF
ENDCHAR
STARTCHAR 094
ENCODING 94
SWIDTH 2304 0
DWIDTH 32 0
BBX 27 18 0 38
BITMAP
001F0000
001F0000
001F0000
001F0000
001F0000
001F0000
03E0FC00
03E0FC00
03E0FC00
03E0FC00
03E0FC00
03E0FC00
FC0003E0
FC0003E0
FC0003E0
FC0003E0
FC0003E0
FC0003E0
ENDCHAR
STARTCHAR 095
ENCODING 95
SWIDTH 2304 0
DWIDTH 32 0
BBX 27 5 0 -2
BITMAP
FFFFFFE0
FFFFFFE0
FFFFFFE0
FFFFFFE0
FFFFFFE0
ENDCHAR
STARTCHAR 096
ENCODING 96
SWIDTH 2304 0
DWIDTH 32 0
BBX 16 18 6 38
BITMAP
F800
F800
F800
F800
F800
F800
07C0
07C0
07C0
07C0
07C0
07C0
003F
003F
003F
003F
003F
003F
ENDCHAR
STARTCHAR 097
ENCODING 97
SWIDTH 2304 0
DWIDTH 32 0
BBX 27 29 0 9
BITMAP
03FFFC00
03FFFC00
03FFFC00
03FFFC00
03FFFC00
000003E0
000003E0
000003E0
000003E0
000003E0
000003E0
03FFFFE0
03FFFFE0
03FFFFE0
03FFFFE0
03FFFFE0
03FFFFE0
FC0003E0
FC0003E0
FC0003E0
FC0003E0
FC0003E0
FC0003E0
03FFFFE0
03FFFFE0
03FFFFE0
03FFFFE0
03FFFFE0
03FFFFE0
ENDCHAR
STARTCHAR 098
ENCODING 98
SWIDTH 2304 0
DWIDTH 32 0
BBX 27 41 0 9
BITMAP
FC000000
FC000000
FC000000
FC000000
FC000000
FC000000
FC000000
FC000000
FC000000
FC000000
FC000000
FC000000
FFFFFC00
FFFFFC00
FFFFFC00
FFFFFC00
FFFFFC00
FC0003E0
FC0003E0
FC0003E0
FC0003E0
FC0003E0
FC0003E0
FC0003E0
FC0003E0
FC0003E0
FC0003E0
FC0003E0
FC0003E0
FC0003E0
FC0003E0
FC0003E0
FC0003E0
FC0003E0
FC0003E0
FFFFFC00
FFFFFC00
FFFFFC00
FFFFFC00
FFFFFC00
FFFFFC00
ENDCHAR
STARTCHAR 099
ENCODING 99
SWIDTH 2304 0
DWIDTH 32 0
BBX 27 29 0 9
BITMAP
03FFFC00
03FFFC00
03FFFC00
03FFFC00
03FFFC00
FC000000
FC000000
FC000000
FC000000
FC000000
FC000000
FC000000
FC000000
FC000000
FC000000
FC000000
FC000000
FC0003E0
FC0003E0
FC0003E0
FC0003E0
FC0003E0
FC0003E0
03FFFC00
03FFFC00
03FFFC00
03FFFC00
03FFFC00
03FFFC00
ENDCHAR
STARTCHAR 100
ENCODING 100
SWIDTH 2304 0
DWIDTH 32 0
BBX 27 41 0 9
BITMAP
000003E0
000003E0
000003E0
000003E0
000003E0
000003E0
000003E0
000003E0
000003E0
000003E0
000003E0
000003E0
03FFFFE0
03FFFFE0
03FFFFE0
03FFFFE0
03FFFFE0
FC0003E0
FC0003E0
FC0003E0
FC0003E0
FC0003E0
FC0003E0
FC0003E0
FC0003E0
FC0003E0
FC0003E0
FC0003E0
FC0003E0
FC0003E0
FC0003E0
FC0003E0
FC0003E0
FC0003E0
FC0003E0
03FFFFE0
03FFFFE0
03FFFFE0
03FFFFE0
03FFFFE0
03FFFFE0
ENDCHAR
STARTCHAR 101
ENCODING 101
SWIDTH 2304 0
DWIDTH 32 0
BBX 27 29 0 9
BITMAP
03FFFC00
03FFFC00
03FFFC00
03FFFC00
03FFFC00
FC0003E0
FC0003E0
FC0003E0
FC0003E0
FC0003E0
FC0003E0
FFFFFC00
FFFFFC00
FFFFFC00
FFFFFC00
FFFFFC00
FFFFFC00
FC000000
FC000000
FC000000
FC000000
FC000000
FC000000
03FFFC00
03FFFC00
03FFFC00
03FFFC00
03FFFC00
03FFFC00
ENDCHAR
STARTCHAR 102
ENCODING 102
SWIDTH 2304 0
DWIDTH 32 0
BBX 27 41 0 9
BITMAP
001FFC00
001FFC00
001FFC00
001FFC00
001FFC00
001FFC00
03E003E0
03E003E0
03E003E0
03E003E0
03E003E0
03E003E0
03E00000
03E00000
03E00000
03E00000
03E00000
FFFF0000
FFFF0000
FFFF0000
FFFF0000
FFFF0000
FFFF0000
03E00000
03E00000
03E00000
03E00000
03E00000
03E00000
03E00000
03E00000
03E00000
03E00000
03E00000
03E00000
03E00000
03E00000
03E00000
03E00000
03E00000
03E00000
ENDCHAR
STARTCHAR 103
ENCODING 103
SWIDTH 2304 0
DWIDTH 32 0
BBX 27 40 0 -2
BITMAP
03FFFC00
03FFFC00
03FFFC00
03FFFC00
03FFFC00
FC0003E0
FC0003E0
FC0003E0
FC0003E0
FC0003E0
FC0003E0
FC0003E0
FC0003E0
FC0003E0
FC0003E0
FC0003E0
FC0003E0
FC0003E0
FC0003E0
FC0003E0
FC0003E0
FC0003E0
FC0003E0
03FFFFE0
03FFFFE0
03FFFFE0
03FFFFE0
03FFFFE0
03FFFFE0
000003E0
000003E0
000003E0
000003E0
000003E0
000003E0
03FFFC00
03FFFC00
03FFFC00
03FFFC00
03FFFC00
ENDCHAR
STARTCHAR 104
ENCODING 104
SWIDTH 2304 0
DWIDTH 32 0
BBX 27 41 0 9
BITMAP
FC000000
FC000000
FC000000
FC000000
FC000000
FC000000
FC000000
FC000000
FC000000
FC000000
FC000000
FC000000
FFFFFC00
FFFFFC00
FFFFFC00
FFFFFC00
FFFFFC00
FC0003E0
FC0003E0
FC0003E0
FC0003E0
FC0003E0
FC0003E0
FC0003E0
FC0003E0
FC0003E0
FC0003E0
FC0003E0
FC0003E0
FC0003E0
FC0003E0
FC0003E0
FC0003E0
FC0003E0
FC0003E0
FC0003E0
FC0003E0
FC0003E0
FC0003E0
FC0003E0
FC0003E0
ENDCHAR
STARTCHAR 105
ENCODING 105
SWIDTH 2304 0
DWIDTH 32 0
BBX 16 41 6 9
BITMAP
07C0
07C0
07C0
07C0
07C0
07C0
0000
0000
0000
0000
0000
0000
FFC0
FFC0
FFC0
FFC0
FFC0
07C0
07C0
07C0
07C0
07C0
07C0
07C0
07C0
07C0
07C0
07C0
07C0
07C0
07C0
07C0
07C0
07C0
07C0
FFFF
FFFF
FFFF
FFFF
FFFF
FFFF
ENDCHAR
STARTCHAR 106
ENCODING 106
SWIDTH 2304 0
DWIDTH 32 0
BBX 21 52 6 -2
BITMAP
0000F8
0000F8
0000F8
0000F8
0000F8
0000F8
000000
000000
000000
000000
000000
000000
003FF8
003FF8
003FF8
003FF8
003FF8
0000F8
0000F8
0000F8
0000F8
0000F8
0000F8
0000F8
0000F8
0000F8
0000F8
0000F8
0000F8
0000F8
0000F8
0000F8
0000F8
0000F8
0000F8
0000F8
0000F8
0000F8
0000F8
0000F8
0000F8
F800F8
F800F8
F800F8
F800F8
F800F8
F800F8
07FF00
07FF00
07FF00
07FF00
07FF00
ENDCHAR
STARTCHAR 107
ENCODING 107
SWIDTH 2304 0
DWIDTH 32 0
BBX 27 41 0 9
BITMAP
FC000000
FC000000
FC000000
FC000000
FC000000
FC000000
FC000000
FC000000
FC000000
FC000000
FC000000
FC000000
FC0003E0
FC0003E0
FC0003E0
FC0003E0
FC0003E0
FC00FC00
FC00FC00
FC00FC00
FC00FC00
FC00FC00
FC00FC00
FFFF0000
FFFF0000
FFFF0000
FFFF0000
FFFF0000
FFFF0000
FC00FC00
FC00FC00
FC00FC00
FC00FC00
FC00FC00
FC00FC00
FC0003E0
FC0003E0
FC0003E0
FC0003E0
FC0003E0
FC0003E0
ENDCHAR
STARTCHAR 108
ENCODING 108
SWIDTH 2304 0
DWIDTH 32 0
BBX 16 41 6 9
BITMAP
FFC0
FFC0
FFC0
FFC0
FFC0
FFC0
07C0
07C0
07C0
07C0
07C0
07C0
07C0
07C0
07C0
07C0
07C0
07C0
07C0
07C0
07C0
07C0
07C0
07C0
07C0
07C0
07C0
07C0
07C0
07C0
07C0
07C0
07C0
07C0
07C0
FFFF
FFFF
FFFF
FFFF
FFFF
FFFF
ENDCHAR
STARTCHAR 109
ENCODING 109
SWIDTH 2304 0
DWIDTH 32 0
BBX 27 29 0 9
BITMAP
FFE0FC00
FFE0FC00
FFE0FC00
FFE0FC00
FFE0FC00
FC1F03E0
FC1F03E0
FC1F03E0
FC1F03E0
FC1F03E0
FC1F03E0
FC1F03E0
FC1F03E0
FC1F03E0
FC1F03E0
FC1F03E0
FC1F03E0
FC1F03E0
FC1F03E0
FC1F03E0
FC1F03E0
FC1F03E0
FC1F03E0
FC1F03E0
FC1F03E0
FC1F03E0
FC1F03E0
FC1F03E0
FC1F03E0
ENDCHAR
STARTCHAR 110
ENCODING 110
SWIDTH 2304 0
DWIDTH 32 0
BBX 27 29 0 9
BITMAP
FC1FFC00
FC1FFC00
FC1FFC00
FC1FFC00
FC1FFC00
FFE003E0
FFE003E0
FFE003E0
FFE003E0
FFE003E0
FFE003E0
FC0003E0
FC0003E0
FC0003E0
FC0003E0
FC0003E0
FC0003E0
FC0003E0
FC0003E0
FC0003E0
FC0003E0
FC0003E0
FC0003E0
FC0003E0
FC0003E0
FC0003E0
FC0003E0
FC0003E0
FC0003E0
ENDCHAR
STARTCHAR 111
ENCODING 111
SWIDTH 2304 0
DWIDTH 32 0
BBX 27 29 0 9
BITMAP
03FFFC00
03FFFC00
03FFFC00
03FFFC00
03FFFC00
FC0003E0
FC0003E0
FC0003E0
FC0003E0
FC0003E0
FC0003E0
FC0003E0
FC0003E0
FC0003E0
FC0003E0
FC0003E0
FC0003E0
FC0003E0
FC0003E0
FC0003E0
FC0003E0
FC0003E0
FC0003E0
03FFFC00
03FFFC00
03FFFC00
03FFFC00
03FFFC00
03FFFC00
ENDCHAR
STARTCHAR 112
ENCODING 112
SWIDTH 2304 0
DWIDTH 32 0
BBX 27 40 0 -2
BITMAP
FFFFFC00
FFFFFC00
FFFFFC00
FFFFFC00
FFFFFC00
FC0003E0
FC0003E0
FC0003E0
FC0003E0
FC0003E0
FC0003E0
FC0003E0
FC0003E0
FC0003E0
FC0003E0
FC0003E0
FC0003E0
FC0003E0
FC0003E0
FC0003E0
FC0003E0
FC0003E0
FC0003E0
FFFFFC00
FFFFFC00
FFFFFC00
FFFFFC00
FFFFFC00
FFFFFC00
FC000000
FC000000
FC000000
FC000000
FC000000
FC000000
FC000000
FC000000
FC000000
FC000000
FC000000
ENDCHAR
STARTCHAR 113
ENCODING 113
SWIDTH 2304 0
DWIDTH 32 0
BBX 27 40 0 -2
BITMAP
03FFFFE0
03FFFFE0
03FFFFE0
03FFFFE0
03FFFFE0
FC0003E0
FC0003E0
FC0003E0
FC0003E0
FC0003E0
FC0003E0
FC0003E0
FC0003E0
FC0003E0
FC0003E0
FC0003E0
FC0003E0
FC0003E0
FC0003E0
FC0003E0
FC0003E0
FC0003E0
FC0003E0
03FFFFE0
03FFFFE0
03FFFFE0
03FFFFE0
03FFFFE0
03FFFFE0
000003E0
000003E0
000003E0
000003E0
000003E0
000003E0
000003E0
000003E0
000003E0
000003E0
000003E0
ENDCHAR
STARTCHAR 114
ENCODING 114
SWIDTH 2304 0
DWIDTH 32 0
BBX 27 29 0 9
BITMAP
FC1FFC00
FC1FFC00
FC1FFC00
FC1FFC00
FC1FFC00
FFE003E0
FFE003E0
FFE003E0
FFE003E0
FFE003E0
FFE003E0
FC000000
FC000000
FC000000
FC000000
FC000000
FC000000
FC000000
FC000000
FC000000
FC000000
FC000000
FC000000
FC000000
FC000000
FC000000
FC000000
FC000000
FC000000
ENDCHAR
STARTCHAR 115
ENCODING 115
SWIDTH 2304 0
DWIDTH 32 0
BBX 27 29 0 9
BITMAP
03FFFFE0
03FFFFE0
03FFFFE0
03FFFFE0
03FFFFE0
FC000000
FC000000
FC000000
FC000000
FC000000
FC000000
03FFFC00
03FFFC00
03FFFC00
03FFFC00
03FFFC00
03FFFC00
000003E0
000003E0
000003E0
000003E0
000003E0
000003E0
FFFFFC00
FFFFFC00
FFFFFC00
FFFFFC00
FFFFFC00
FFFFFC00
ENDCHAR
STARTCHAR 116
ENCODING 116
SWIDTH 2304 0
DWIDTH 32 0
BBX 27 41 0 9
BITMAP
001F0000
001F0000
001F0000
001F0000
001F0000
001F0000
001F0000
001F0000
001F0000
001F0000
001F0000
001F0000
FFFFFFE0
FFFFFFE0
FFFFFFE0
FFFFFFE0
FFFFFFE0
001F0000
001F0000
001F0000
001F0000
001F0000
001F0000
001F0000
001F0000
001F0000
001F0000
001F0000
001F0000
001F0000
001F0000
001F0000
001F0000
001F0000
001F0000
0000FFE0
0000FFE0
0000FFE0
0000FFE0
0000FFE0
0000FFE0
ENDCHAR
STARTCHAR 117
ENCODING 117
SWIDTH 2304 0
DWIDTH 32 0
BBX 27 29 0 9
BITMAP
FC0003E0
FC0003E0
FC0003E0
FC0003E0
FC0003E0
FC0003E0
FC0003E0
FC0003E0
FC0003E0
FC0003E0
FC0003E0
FC0003E0
FC0003E0
FC0003E0
FC0003E0
FC0003E0
FC0003E0
FC00FFE0
FC00FFE0
FC00FFE0
FC00FFE0
FC00FFE0
FC00FFE0
03FF03E0
03FF03E0
03FF03E0
03FF03E0
03FF03E0
03FF03E0
ENDCHAR
STARTCHAR 118
ENCODING 118
SWIDTH 2304 0
DWIDTH 32 0
BBX 27 29 0 9
BITMAP
FC0003E0
FC0003E0
FC0003E0
FC0003E0
FC0003E0
FC0003E0
FC0003E0
FC0003E0
FC0003E0
FC0003E0
FC0003E0
FC0003E0
FC0003E0
FC0003E0
FC0003E0
FC0003E0
FC0003E0
03E0FC00
03E0FC00
03E0FC00
03E0FC00
03E0FC00
03E0FC00
001F0000
001F0000
001F0000
001F0000
001F0000
001F0000
ENDCHAR
STARTCHAR 119
ENCODING 119
SWIDTH 2304 0
DWIDTH 32 0
BBX 27 29 0 9
BITMAP
FC0003E0
FC0003E0
FC0003E0
FC0003E0
FC0003E0
FC0003E0
FC0003E0
FC0003E0
FC0003E0
FC0003E0
FC0003E0
FC1F03E0
FC1F03E0
FC1F03E0
FC1F03E0
FC1F03E0
FC1F03E0
FC1F03E0
FC1F03E0
FC1F03E0
FC1F03E0
FC1F03E0
FC1F03E0
03E0FC00
03E0FC00
03E0FC00
03E0FC00
03E0FC00
03E0FC00
ENDCHAR
STARTCHAR 120
ENCODING 120
SWIDTH 2304 0
DWIDTH 32 0
BBX 27 29 0 9
BITMAP
FC0003E0
FC0003E0
FC0003E0
FC0003E0
FC0003E0
03E0FC00
03E0FC00
03E0FC00
03E0FC00
03E0FC00
03E0FC00
001F0000
001F0000
001F0000
001F0000
001F0000
001F0000
03E0FC00
03E0FC00
03E0FC00
03E0FC00
03E0FC00
03E0FC00
FC0003E0
FC0003E0
FC0003E0
FC0003E0
FC0003E0
FC0003E0
ENDCHAR
STARTCHAR 121
ENCODING 121
SWIDTH 2304 0
DWIDTH 32 0
BBX 27 40 0 -2
BITMAP
FC0003E0
FC0003E0
FC0003E0
FC0003E0
FC0003E0
FC0003E0
FC0003E0
FC0003E0
FC0003E0
FC0003E0
FC0003E0
FC0003E0
FC0003E0
FC0003E0
FC0003E0
FC0003E0
FC0003E0
03E0FC00
03E0FC00
03E0FC00
03E0FC00
03E0FC00
03E0FC00
001F0000
001F0000
001F0000
001F0000
001F0000
001F0000
03E00000
03E00000
03E00000
03E00000
03E00000
03E00000
FC000000
FC000000
FC000000
FC000000
FC000000
ENDCHAR
STARTCHAR 122
ENCODING 122
SWIDTH 2304 0
DWIDTH 32 0
BBX 27 29 0 9
BITMAP
FFFFFFE0
FFFFFFE0
FFFFFFE0
FFFFFFE0
FFFFFFE0
0000FC00
0000FC00
0000FC00
0000FC00
0000FC00
0000FC00
001F0000
001F0000
001F0000
001F0000
001F0000
001F0000
03E00000
03E00000
03E00000
03E00000
03E00000
03E00000
FFFFFFE0
FFFFFFE0
FFFFFFE0
FFFFFFE0
FFFFFFE0
FFFFFFE0
ENDCHAR
STARTCHAR 123
ENCODING 123
SWIDTH 2304 0
DWIDTH 32 0
BBX 16 53 6 3
BITMAP
003F
003F
003F
003F
003F
003F
07C0
07C0
07C0
07C0
07C0
07C0
07C0
07C0
07C0
07C0
07C0
07C0
07C0
07C0
07C0
07C0
07C0
F800
F800
F800
F800
F800
F800
07C0
07C0
07C0
07C0
07C0
07C0
07C0
07C0
07C0
07C0
07C0
07C0
07C0
07C0
07C0
07C0
07C0
07C0
003F
003F
003F
003F
003F
003F
ENDCHAR
STARTCHAR 124
ENCODING 124
SWIDTH 2304 0
DWIDTH 32 0
BBX 5 53 11 3
BITMAP
F8
F8
F8
F8
F8
F8
F8
F8
F8
F8
F8
F8
F8
F8
F8
F8
F8
F8
F8
F8
F8
F8
F8
F8
F8
F8
F8
F8
F8
F8
F8
F8
F8
F8
F8
F8
F8
F8
F8
F8
F8
F8
F8
F8
F8
F8
F8
F8
F8
F8
F8
F8
F8
ENDCHAR
STARTCHAR 125
ENCODING 125
SWIDTH 2304 0
DWIDTH 32 0
BBX 16 53 6 3
BITMAP
F800
F800
F800
F800
F800
F800
07C0
07C0
07C0
07C0
07C0
07C0
07C0
07C0
07C0
07C0
07C0
07C0
07C0
07C0
07C0
07C0
07C0
003F
003F
003F
003F
003F
003F
07C0
07C0
07C0
07C0
07C0
07C0
07C0
07C0
07C0
07C0
07C0
07C0
07C0
07C0
07C0
07C0
07C0
07C0
F800
F800
F800
F800
F800
F800
ENDCHAR
STARTCHAR 126
ENCODING 126
SWIDTH 2304 0
DWIDTH 32 0
BBX 27 17 0 21
BITMAP
03E003E0
03E003E0
03E003E0
03E003E0
03E003E0
FC1F03E0
FC1F03E0
FC1F03E0
FC1F03E0
FC1F03E0
FC1F03E0
FC00FC00
FC00FC00
FC00FC00
FC00FC00
FC00FC00
FC00FC00
ENDCHAR
STARTCHAR 127
ENCODING 127
SWIDTH 1944 0
DWIDTH 27 0
BBX 0 0 0 0
BITMAP
ENDCHAR
STARTCHAR 128
ENCODING 128
SWIDTH 1944 0
DWIDTH 27 0
BBX 0 0 0 0
BITMAP
ENDCHAR
STARTCHAR 129
ENCODING 129
SWIDTH 1944 0
DWIDTH 27 0
BBX 0 0 0 0
BITMAP
ENDCHAR
STARTCHAR 130
ENCODING 130
SWIDTH 1944 0
DWIDTH 27 0
BBX 0 0 0 0
BITMAP
ENDCHAR
STARTCHAR 131
ENCODING 131
SWIDTH 1944 0
DWIDTH 27 0
BBX 0 0 0 0
BITMAP
ENDCHAR
STARTCHAR 132
ENCODING 132
SWIDTH 1944 0
DWIDTH 27 0
BBX 0 0 0 0
BITMAP
ENDCHAR
STARTCHAR 133
ENCODING 133
SWIDTH 1944 0
DWIDTH 27 0
BBX 0 0 0 0
BITMAP
ENDCHAR
STARTCHAR 134
ENCODING 134
SWIDTH 1944 0
DWIDTH 27 0
BBX 0 0 0 0
BITMAP
ENDCHAR
STARTCHAR 135
ENCODING 135
SWIDTH 1944 0
DWIDTH 27 0
BBX 0 0 0 0
BITMAP
ENDCHAR
STARTCHAR 136
ENCODING 136
SWIDTH 1944 0
DWIDTH 27 0
BBX 0 0 0 0
BITMAP
ENDCHAR
STARTCHAR 137
ENCODING 137
SWIDTH 1944 0
DWIDTH 27 0
BBX 0 0 0 0
BITMAP
ENDCHAR
STARTCHAR 138
ENCODING 138
SWIDTH 1944 0
DWIDTH 27 0
BBX 0 0 0 0
BITMAP
ENDCHAR
STARTCHAR 139
ENCODING 139
SWIDTH 1944 0
DWIDTH 27 0
BBX 0 0 0 0
BITMAP
ENDCHAR
STARTCHAR 140
ENCODING 140
SWIDTH 1944 0
DWIDTH 27 0
BBX 0 0 0 0
BITMAP
ENDCHAR
STARTCHAR 141
ENCODING 141
SWIDTH 1944 0
DWIDTH 27 0
BBX 0 0 0 0
BITMAP
ENDCHAR
STARTCHAR 142
ENCODING 142
SWIDTH 1944 0
DWIDTH 27 0
BBX 0 0 0 0
BITMAP
ENDCHAR
STARTCHAR 143
ENCODING 143
SWIDTH 1944 0
DWIDTH 27 0
BBX 0 0 0 0
BITMAP
ENDCHAR
STARTCHAR 144
ENCODING 144
SWIDTH 1944 0
DWIDTH 27 0
BBX 0 0 0 0
BITMAP
ENDCHAR
STARTCHAR 145
ENCODING 145
SWIDTH 1944 0
DWIDTH 27 0
BBX 0 0 0 0
BITMAP
ENDCHAR
STARTCHAR 146
ENCODING 146
SWIDTH 1944 0
DWIDTH 27 0
BBX 0 0 0 0
BITMAP
ENDCHAR
STARTCHAR 147
ENCODING 147
SWIDTH 1944 0
DWIDTH 27 0
BBX 0 0 0 0
BITMAP
ENDCHAR
STARTCHAR 148
ENCODING 148
SWIDTH 1944 0
DWIDTH 27 0
BBX 0 0 0 0
BITMAP
ENDCHAR
STARTCHAR 149
ENCODING 149
SWIDTH 1944 0
DWIDTH 27 0
BBX 0 0 0 0
BITMAP
ENDCHAR
STARTCHAR 150
ENCODING 150
SWIDTH 1944 0
DWIDTH 27 0
BBX 0 0 0 0
BITMAP
ENDCHAR
STARTCHAR 151
ENCODING 151
SWIDTH 1944 0
DWIDTH 27 0
BBX 0 0 0 0
BITMAP
ENDCHAR
STARTCHAR 152
ENCODING 152
SWIDTH 1944 0
DWIDTH 27 0
BBX 0 0 0 0
BITMAP
ENDCHAR
STARTCHAR 153
ENCODING 153
SWIDTH 1944 0
DWIDTH 27 0
BBX 0 0 0 0
BITMAP
ENDCHAR
STARTCHAR 154
ENCODING 154
SWIDTH 1944 0
DWIDTH 27 0
BBX 0 0 0 0
BITMAP
ENDCHAR
STARTCHAR 155
ENCODING 155
SWIDTH 1944 0
DWIDTH 27 0
BBX 0 0 0 0
BITMAP
ENDCHAR
STARTCHAR 156
ENCODING 156
SWIDTH 1944 0
DWIDTH 27 0
BBX 0 0 0 0
BITMAP
ENDCHAR
STARTCHAR 157
ENCODING 157
SWIDTH 1944 0
DWIDTH 27 0
BBX 0 0 0 0
BITMAP
ENDCHAR
STARTCHAR 158
ENCODING 158
SWIDTH 1944 0
DWIDTH 27 0
BBX 0 0 0 0
BITMAP
ENDCHAR
STARTCHAR 159
ENCODING 159
SWIDTH 1944 0
DWIDTH 27 0
BBX 0 0 0 0
BITMAP
ENDCHAR
STARTCHAR 160
ENCODING 160
SWIDTH 2304 0
DWIDTH 32 0
BBX 0 0 0 0
BITMAP
ENDCHAR
STARTCHAR 161
ENCODING 161
SWIDTH 2304 0
DWIDTH 32 0
BBX 5 41 11 9
BITMAP
F8
F8
F8
F8
F8
F8
00
00
00
00
00
00
F8
F8
F8
F8
F8
F8
F8
F8
F8
F8
F8
F8
F8
F8
F8
F8
F8
F8
F8
F8
F8
F8
F8
F8
F8
F8
F8
F8
F8
ENDCHAR
STARTCHAR 162
ENCODING 162
SWIDTH 2304 0
DWIDTH 32 0
BBX 27 41 0 3
BITMAP
001F0000
001F0000
001F0000
001F0000
001F0000
001F0000
03FFFC00
03FFFC00
03FFFC00
03FFFC00
03FFFC00
FC1F03E0
FC1F03E0
FC1F03E0
FC1F03E0
FC1F03E0
FC1F03E0
FC1F0000
FC1F0000
FC1F0000
FC1F0000
FC1F0000
FC1F0000
FC1F03E0
FC1F03E0
FC1F03E0
FC1F03E0
FC1F03E0
FC1F03E0
03FFFC00
03FFFC00
03FFFC00
03FFFC00
03FFFC00
03FFFC00
001F0000
001F0000
001F0000
001F0000
001F0000
001F0000
ENDCHAR
STARTCHAR 163
ENCODING 163
SWIDTH 2304 0
DWIDTH 32 0
BBX 27 41 0 9
BITMAP
001FFC00
001FFC00
001FFC00
001FFC00
001FFC00
001FFC00
03E003E0
03E003E0
03E003E0
03E003E0
03E003E0
03E003E0
03E00000
03E00000
03E00000
03E00000
03E00000
FFFF0000
FFFF0000
FFFF0000
FFFF0000
FFFF0000
FFFF0000
03E00000
03E00000
03E00000
03E00000
03E00000
03E00000
03E003E0
03E003E0
03E003E0
03E003E0
03E003E0
03E003E0
FC1FFC00
FC1FFC00
FC1FFC00
FC1FFC00
FC1FFC00
FC1FFC00
ENDCHAR
STARTCHAR 164
ENCODING 164
SWIDTH 2304 0
DWIDTH 32 0
BBX 27 29 0 9
BITMAP
FC1F03E0
FC1F03E0
FC1F03E0
FC1F03E0
FC1F03E0
03E0FC00
03E0FC00
03E0FC00
03E0FC00
03E0FC00
03E0FC00
FC0003E0
FC0003E0
FC0003E0
FC0003E0
FC0003E0
FC0003E0
03E0FC00
03E0FC00
03E0FC00
03E0FC00
03E0FC00
03E0FC00
FC1F03E0
FC1F03E0
FC1F03E0
FC1F03E0
FC1F03E0
FC1F03E0
ENDCHAR
STARTCHAR 165
ENCODING 165
SWIDTH 2304 0
DWIDTH 32 0
BBX 27 41 0 9
BITMAP
FC0003E0
FC0003E0
FC0003E0
FC0003E0
FC0003E0
FC0003E0
03E0FC00
03E0FC00
03E0FC00
03E0FC00
03E0FC00
03E0FC00
FFFFFFE0
FFFFFFE0
FFFFFFE0
FFFFFFE0
FFFFFFE0
001F0000
001F0000
001F0000
001F0000
001F0000
001F0000
FFFFFFE0
FFFFFFE0
FFFFFFE0
FFFFFFE0
FFFFFFE0
FFFFFFE0
001F0000
001F0000
001F0000
001F0000
001F0000
001F0000
001F0000
001F0000
001F0000
001F0000
001F0000
001F0000
ENDCHAR
STARTCHAR 166
ENCODING 166
SWIDTH 2304 0
DWIDTH 32 0
BBX 5 41 11 9
BITMAP
F8
F8
F8
F8
F8
F8
F8
F8
F8
F8
F8
F8
F8
F8
F8
F8
F8
00
00
00
00
00
00
F8
F8
F8
F8
F8
F8
F8
F8
F8
F8
F8
F8
F8
F8
F8
F8
F8
F8
ENDCHAR
STARTCHAR 167
ENCODING 167
SWIDTH 2304 0
DWIDTH 32 0
BBX 21 47 6 9
BITMAP
07FFF8
07FFF8
07FFF8
07FFF8
07FFF8
07FFF8
F80000
F80000
F80000
F80000
F80000
F80000
07FF00
07FF00
07FF00
07FF00
07FF00
07FF00
F800F8
F800F8
F800F8
F800F8
F800F8
F800F8
F800F8
F800F8
F800F8
F800F8
F800F8
07FF00
07FF00
07FF00
07FF00
07FF00
07FF00
0000F8
0000F8
0000F8
0000F8
0000F8
0000F8
FFFF00
FFFF00
FFFF00
FFFF00
FFFF00
FFFF00
ENDCHAR
STARTCHAR 168
ENCODING 168
SWIDTH 2304 0
DWIDTH 32 0
BBX 16 6 6 50
BITMAP
F83F
F83F
F83F
F83F
F83F
F83F
ENDCHAR
STARTCHAR 169
ENCODING 169
SWIDTH 2304 0
DWIDTH 32 0
BBX 32 41 0 9
BITMAP
03FFFFE0
03FFFFE0
03FFFFE0
03FFFFE0
03FFFFE0
03FFFFE0
FC00001F
FC00001F
FC00001F
FC00001F
FC00001F
FC00001F
FC1FFC1F
FC1FFC1F
FC1FFC1F
FC1FFC1F
FC1FFC1F
FC1F001F
FC1F001F
FC1F001F
FC1F001F
FC1F001F
FC1F001F
FC1FFC1F
FC1FFC1F
FC1FFC1F
FC1FFC1F
FC1FFC1F
FC1FFC1F
FC00001F
FC00001F
FC00001F
FC00001F
FC00001F
FC00001F
03FFFFE0
03FFFFE0
03FFFFE0
03FFFFE0
03FFFFE0
03FFFFE0
ENDCHAR
STARTCHAR 170
ENCODING 170
SWIDTH 2304 0
DWIDTH 32 0
BBX 16 29 6 33
BITMAP
07FF
07FF
07FF
07FF
07FF
07FF
F83F
F83F
F83F
F83F
F83F
F83F
07FF
07FF
07FF
07FF
07FF
07FF
0000
0000
0000
0000
0000
0000
FFFF
FFFF
FFFF
FFFF
FFFF
ENDCHAR
STARTCHAR 171
ENCODING 171
SWIDTH 2304 0
DWIDTH 32 0
BBX 27 29 0 9
BITMAP
001F03E0
001F03E0
001F03E0
001F03E0
001F03E0
03E0FC00
03E0FC00
03E0FC00
03E0FC00
03E0FC00
03E0FC00
FC1F0000
FC1F0000
FC1F0000
FC1F0000
FC1F0000
FC1F0000
03E0FC00
03E0FC00
03E0FC00
03E0FC00
03E0FC00
03E0FC00
001F03E0
001F03E0
001F03E0
001F03E0
001F03E0
001F03E0
ENDCHAR
STARTCHAR 172
ENCODING 172
SWIDTH 2304 0
DWIDTH 32 0
BBX 27 18 0 15
BITMAP
FFFFFFE0
FFFFFFE0
FFFFFFE0
FFFFFFE0
FFFFFFE0
FFFFFFE0
000003E0
000003E0
000003E0
000003E0
000003E0
000003E0
000003E0
000003E0
000003E0
000003E0
000003E0
000003E0
ENDCHAR
STARTCHAR 173
ENCODING 173
SWIDTH 2304 0
DWIDTH 32 0
BBX 16 6 6 27
BITMAP
FFFF
FFFF
FFFF
FFFF
FFFF
FFFF
ENDCHAR
STARTCHAR 174
ENCODING 174
SWIDTH 2304 0
DWIDTH 32 0
BBX 32 41 0 9
BITMAP
03FFFFE0
03FFFFE0
03FFFFE0
03FFFFE0
03FFFFE0
03FFFFE0
FC00001F
FC00001F
FC00001F
FC00001F
FC00001F
FC00001F
FC1FFC1F
FC1FFC1F
FC1FFC1F
FC1FFC1F
FC1FFC1F
FC1F001F
FC1F001F
FC1F001F
FC1F001F
FC1F001F
FC1F001F
FC1F001F
FC1F001F
FC1F001F
FC1F001F
FC1F001F
FC1F001F
FC00001F
FC00001F
FC00001F
FC00001F
FC00001F
FC00001F
03FFFFE0
03FFFFE0
03FFFFE0
03FFFFE0
03FFFFE0
03FFFFE0
ENDCHAR
STARTCHAR 175
ENCODING 175
SWIDTH 2304 0
DWIDTH 32 0
BBX 27 6 0 50
BITMAP
FFFFFFE0
FFFFFFE0
FFFFFFE0
FFFFFFE0
FFFFFFE0
FFFFFFE0
ENDCHAR
STARTCHAR 176
ENCODING 176
SWIDTH 2304 0
DWIDTH 32 0
BBX 21 24 6 38
BITMAP
07FF00
07FF00
07FF00
07FF00
07FF00
07FF00
F800F8
F800F8
F800F8
F800F8
F800F8
F800F8
F800F8
F800F8
F800F8
F800F8
F800F8
F800F8
07FF00
07FF00
07FF00
07FF00
07FF00
07FF00
ENDCHAR
STARTCHAR 177
ENCODING 177
SWIDTH 2304 0
DWIDTH 32 0
BBX 27 41 0 9
BITMAP
001F0000
001F0000
001F0000
001F0000
001F0000
001F0000
001F0000
001F0000
001F0000
001F0000
001F0000
001F0000
FFFFFFE0
FFFFFFE0
FFFFFFE0
FFFFFFE0
FFFFFFE0
001F0000
001F0000
001F0000
001F0000
001F0000
001F0000
001F0000
001F0000
001F0000
001F0000
001F0000
001F0000
00000000
00000000
00000000
00000000
00000000
00000000
FFFFFFE0
FFFFFFE0
FFFFFFE0
FFFFFFE0
FFFFFFE0
FFFFFFE0
ENDCHAR
STARTCHAR 178
ENCODING 178
SWIDTH 2304 0
DWIDTH 32 0
BBX 16 29 6 33
BITMAP
07C0
07C0
07C0
07C0
07C0
07C0
F83F
F83F
F83F
F83F
F83F
F83F
003F
003F
003F
003F
003F
003F
07C0
07C0
07C0
07C0
07C0
07C0
FFFF
FFFF
FFFF
FFFF
FFFF
ENDCHAR
STARTCHAR 179
ENCODING 179
SWIDTH 2304 0
DWIDTH 32 0
BBX 16 29 6 33
BITMAP
FFC0
FFC0
FFC0
FFC0
FFC0
FFC0
003F
003F
003F
003F
003F
003F
07C0
07C0
07C0
07C0
07C0
07C0
003F
003F
003F
003F
003F
003F
FFC0
FFC0
FFC0
FFC0
FFC0
ENDCHAR
STARTCHAR 180
ENCODING 180
SWIDTH 2304 0
DWIDTH 32 0
BBX 16 18 6 38
BITMAP
003F
003F
003F
003F
003F
003F
07C0
07C0
07C0
07C0
07C0
07C0
F800
F800
F800
F800
F800
F800
ENDCHAR
STARTCHAR 181
ENCODING 181
SWIDTH 2304 0
DWIDTH 32 0
BBX 27 40 0 -2
BITMAP
FC0003E0
FC0003E0
FC0003E0
FC0003E0
FC0003E0
FC0003E0
FC0003E0
FC0003E0
FC0003E0
FC0003E0
FC0003E0
FC0003E0
FC0003E0
FC0003E0
FC0003E0
FC0003E0
FC0003E0
FC00FFE0
FC00FFE0
FC00FFE0
FC00FFE0
FC00FFE0
FC00FFE0
FFFF03E0
FFFF03E0
FFFF03E0
FFFF03E0
FFFF03E0
FFFF03E0
FC000000
FC000000
FC000000
FC000000
FC000000
FC000000
FC000000
FC000000
FC000000
FC000000
FC000000
ENDCHAR
STARTCHAR 182
ENCODING 182
SWIDTH 2304 0
DWIDTH 32 0
BBX 27 47 0 9
BITMAP
03FFFFE0
03FFFFE0
03FFFFE0
03FFFFE0
03FFFFE0
03FFFFE0
FFFF03E0
FFFF03E0
FFFF03E0
FFFF03E0
FFFF03E0
FFFF03E0
FFFF03E0
FFFF03E0
FFFF03E0
FFFF03E0
FFFF03E0
FFFF03E0
FFFF03E0
FFFF03E0
FFFF03E0
FFFF03E0
FFFF03E0
03FF03E0
03FF03E0
03FF03E0
03FF03E0
03FF03E0
03FF03E0
001F03E0
001F03E0
001F03E0
001F03E0
001F03E0
001F03E0
001F03E0
001F03E0
001F03E0
001F03E0
001F03E0
001F03E0
001F03E0
001F03E0
001F03E0
001F03E0
001F03E0
001F03E0
ENDCHAR
STARTCHAR 183
ENCODING 183
SWIDTH 2304 0
DWIDTH 32 0
BBX 11 11 11 27
BITMAP
FFE0
FFE0
FFE0
FFE0
FFE0
FFE0
FFE0
FFE0
FFE0
FFE0
FFE0
ENDCHAR
STARTCHAR 184
ENCODING 184
SWIDTH 2304 0
DWIDTH 32 0
BBX 16 11 6 -2
BITMAP
003F
003F
003F
003F
003F
003F
FFC0
FFC0
FFC0
FFC0
FFC0
ENDCHAR
STARTCHAR 185
ENCODING 185
SWIDTH 2304 0
DWIDTH 32 0
BBX 16 29 6 33
BITMAP
07C0
07C0
07C0
07C0
07C0
07C0
FFC0
FFC0
FFC0
FFC0
FFC0
FFC0
07C0
07C0
07C0
07C0
07C0
07C0
07C0
07C0
07C0
07C0
07C0
07C0
FFFF
FFFF
FFFF
FFFF
FFFF
ENDCHAR
STARTCHAR 186
ENCODING 186
SWIDTH 2304 0
DWIDTH 32 0
BBX 16 30 6 38
BITMAP
07C0
07C0
07C0
07C0
07C0
07C0
F83F
F83F
F83F
F83F
F83F
F83F
07C0
07C0
07C0
07C0
07C0
07C0
0000
0000
0000
0000
0000
0000
FFFF
FFFF
FFFF
FFFF
FFFF
FFFF
ENDCHAR
STARTCHAR 187
ENCODING 187
SWIDTH 2304 0
DWIDTH 32 0
BBX 27 29 0 9
BITMAP
FC1F0000
FC1F0000
FC1F0000
FC1F0000
FC1F0000
03E0FC00
03E0FC00
03E0FC00
03E0FC00
03E0FC00
03E0FC00
001F03E0
001F03E0
001F03E0
001F03E0
001F03E0
001F03E0
03E0FC00
03E0FC00
03E0FC00
03E0FC00
03E0FC00
03E0FC00
FC1F0000
FC1F0000
FC1F0000
FC1F0000
FC1F0000
FC1F0000
ENDCHAR
STARTCHAR 188
ENCODING 188
SWIDTH 2304 0
DWIDTH 32 0
BBX 27 59 0 9
BITMAP
03E00000
03E00000
03E00000
03E00000
03E00000
03E00000
FFE00000
FFE00000
FFE00000
FFE00000
FFE00000
FFE00000
03E003E0
03E003E0
03E003E0
03E003E0
03E003E0
03E003E0
03E0FC00
03E0FC00
03E0FC00
03E0FC00
03E0FC00
03E0FC00
03FF0000
03FF0000
03FF0000
03FF0000
03FF0000
03FF0000
03E0FC00
03E0FC00
03E0FC00
03E0FC00
03E0FC00
FC1FFC00
FC1FFC00
FC1FFC00
FC1FFC00
FC1FFC00
FC1FFC00
03E0FC00
03E0FC00
03E0FC00
03E0FC00
03E0FC00
03E0FC00
03FFFFE0
03FFFFE0
03FFFFE0
03FFFFE0
03FFFFE0
03FFFFE0
0000FC00
0000FC00
0000FC00
0000FC00
0000FC00
0000FC00
ENDCHAR
STARTCHAR 189
ENCODING 189
SWIDTH 2304 0
DWIDTH 32 0
BBX 27 59 0 9
BITMAP
03E00000
03E00000
03E00000
03E00000
03E00000
03E00000
FFE00000
FFE00000
FFE00000
FFE00000
FFE00000
FFE00000
03E003E0
03E003E0
03E003E0
03E003E0
03E003E0
03E003E0
03E0FC00
03E0FC00
03E0FC00
03E0FC00
03E0FC00
03E0FC00
03FF0000
03FF0000
03FF0000
03FF0000
03FF0000
03FF0000
03E0FC00
03E0FC00
03E0FC00
03E0FC00
03E0FC00
FC1F03E0
FC1F03E0
FC1F03E0
FC1F03E0
FC1F03E0
FC1F03E0
000003E0
000003E0
000003E0
000003E0
000003E0
000003E0
0000FC00
0000FC00
0000FC00
0000FC00
0000FC00
0000FC00
001FFFE0
001FFFE0
001FFFE0
001FFFE0
001FFFE0
001FFFE0
ENDCHAR
STARTCHAR 190
ENCODING 190
SWIDTH 2304 0
DWIDTH 32 0
BBX 27 59 0 9
BITMAP
FFE00000
FFE00000
FFE00000
FFE00000
FFE00000
FFE00000
001F0000
001F0000
001F0000
001F0000
001F0000
001F0000
03E003E0
03E003E0
03E003E0
03E003E0
03E003E0
03E003E0
001FFC00
001FFC00
001FFC00
001FFC00
001FFC00
001FFC00
FFFF0000
FFFF0000
FFFF0000
FFFF0000
FFFF0000
FFFF0000
03E0FC00
03E0FC00
03E0FC00
03E0FC00
03E0FC00
FC1FFC00
FC1FFC00
FC1FFC00
FC1FFC00
FC1FFC00
FC1FFC00
03E0FC00
03E0FC00
03E0FC00
03E0FC00
03E0FC00
03E0FC00
03FFFFE0
03FFFFE0
03FFFFE0
03FFFFE0
03FFFFE0
03FFFFE0
0000FC00
0000FC00
0000FC00
0000FC00
0000FC00
0000FC00
ENDCHAR
STARTCHAR 191
ENCODING 191
SWIDTH 2304 0
DWIDTH 32 0
BBX 27 41 0 9
BITMAP
001F0000
001F0000
001F0000
001F0000
001F0000
001F0000
00000000
00000000
00000000
00000000
00000000
00000000
001F0000
001F0000
001F0000
001F0000
001F0000
001F0000
001F0000
001F0000
001F0000
001F0000
001F0000
03E00000
03E00000
03E00000
03E00000
03E00000
03E00000
FC0003E0
FC0003E0
FC0003E0
FC0003E0
FC0003E0
FC0003E0
03FFFC00
03FFFC00
03FFFC00
03FFFC00
03FFFC00
03FFFC00
ENDCHAR
STARTCHAR 192
ENCODING 192
SWIDTH 2304 0
DWIDTH 32 0
BBX 27 59 0 9
BITMAP
03E00000
03E00000
03E00000
03E00000
03E00000
03E00000
001F0000
001F0000
001F0000
001F0000
001F0000
001F0000
00000000
00000000
00000000
00000000
00000000
00000000
03FFFC00
03FFFC00
03FFFC00
03FFFC00
03FFFC00
03FFFC00
FC0003E0
FC0003E0
FC0003E0
FC0003E0
FC0003E0
FC0003E0
FC0003E0
FC0003E0
FC0003E0
FC0003E0
FC0003E0
FFFFFFE0
FFFFFFE0
FFFFFFE0
FFFFFFE0
FFFFFFE0
FFFFFFE0
FC0003E0
FC0003E0
FC0003E0
FC0003E0
FC0003E0
FC0003E0
FC0003E0
FC0003E0
FC0003E0
FC0003E0
FC0003E0
FC0003E0
FC0003E0
FC0003E0
FC0003E0
FC0003E0
FC0003E0
FC0003E0
ENDCHAR
STARTCHAR 193
ENCODING 193
SWIDTH 2304 0
DWIDTH 32 0
BBX 27 59 0 9
BITMAP
0000FC00
0000FC00
0000FC00
0000FC00
0000FC00
0000FC00
001F0000
001F0000
001F0000
001F0000
001F0000
001F0000
00000000
00000000
00000000
00000000
00000000
00000000
03FFFC00
03FFFC00
03FFFC00
03FFFC00
03FFFC00
03FFFC00
FC0003E0
FC0003E0
FC0003E0
FC0003E0
FC0003E0
FC0003E0
FC0003E0
FC0003E0
FC0003E0
FC0003E0
FC0003E0
FFFFFFE0
FFFFFFE0
FFFFFFE0
FFFFFFE0
FFFFFFE0
FFFFFFE0
FC0003E0
FC0003E0
FC0003E0
FC0003E0
FC0003E0
FC0003E0
FC0003E0
FC0003E0
FC0003E0
FC0003E0
FC0003E0
FC0003E0
FC0003E0
FC0003E0
FC0003E0
FC0003E0
FC0003E0
FC0003E0
ENDCHAR
STARTCHAR 194
ENCODING 194
SWIDTH 2304 0
DWIDTH 32 0
BBX 27 59 0 9
BITMAP
001F0000
001F0000
001F0000
001F0000
001F0000
001F0000
03E0FC00
03E0FC00
03E0FC00
03E0FC00
03E0FC00
03E0FC00
00000000
00000000
00000000
00000000
00000000
00000000
03FFFC00
03FFFC00
03FFFC00
03FFFC00
03FFFC00
03FFFC00
FC0003E0
FC0003E0
FC0003E0
FC0003E0
FC0003E0
FC0003E0
FC0003E0
FC0003E0
FC0003E0
FC0003E0
FC0003E0
FFFFFFE0
FFFFFFE0
FFFFFFE0
FFFFFFE0
FFFFFFE0
FFFFFFE0
FC0003E0
FC0003E0
FC0003E0
FC0003E0
FC0003E0
FC0003E0
FC0003E0
FC0003E0
FC0003E0
FC0003E0
FC0003E0
FC0003E0
FC0003E0
FC0003E0
FC0003E0
FC0003E0
FC0003E0
FC0003E0
ENDCHAR
STARTCHAR 195
ENCODING 195
SWIDTH 2304 0
DWIDTH 32 0
BBX 27 59 0 9
BITMAP
03FF03E0
03FF03E0
03FF03E0
03FF03E0
03FF03E0
03FF03E0
FC1FFC00
FC1FFC00
FC1FFC00
FC1FFC00
FC1FFC00
FC1FFC00
00000000
00000000
00000000
00000000
00000000
00000000
03FFFC00
03FFFC00
03FFFC00
03FFFC00
03FFFC00
03FFFC00
FC0003E0
FC0003E0
FC0003E0
FC0003E0
FC0003E0
FC0003E0
FC0003E0
FC0003E0
FC0003E0
FC0003E0
FC0003E0
FFFFFFE0
FFFFFFE0
FFFFFFE0
FFFFFFE0
FFFFFFE0
FFFFFFE0
FC0003E0
FC0003E0
FC0003E0
FC0003E0
FC0003E0
FC0003E0
FC0003E0
FC0003E0
FC0003E0
FC0003E0
FC0003E0
FC0003E0
FC0003E0
FC0003E0
FC0003E0
FC0003E0
FC0003E0
FC0003E0
ENDCHAR
STARTCHAR 196
ENCODING 196
SWIDTH 2304 0
DWIDTH 32 0
BBX 27 53 0 9
BITMAP
03E0FC00
03E0FC00
03E0FC00
03E0FC00
03E0FC00
03E0FC00
00000000
00000000
00000000
00000000
00000000
00000000
03FFFC00
03FFFC00
03FFFC00
03FFFC00
03FFFC00
03FFFC00
FC0003E0
FC0003E0
FC0003E0
FC0003E0
FC0003E0
FC0003E0
FC0003E0
FC0003E0
FC0003E0
FC0003E0
FC0003E0
FFFFFFE0
FFFFFFE0
FFFFFFE0
FFFFFFE0
FFFFFFE0
FFFFFFE0
FC0003E0
FC0003E0
FC0003E0
FC0003E0
FC0003E0
FC0003E0
FC0003E0
FC0003E0
FC0003E0
FC0003E0
FC0003E0
FC0003E0
FC0003E0
FC0003E0
FC0003E0
FC0003E0
FC0003E0
FC0003E0
ENDCHAR
STARTCHAR 197
ENCODING 197
SWIDTH 2304 0
DWIDTH 32 0
BBX 27 59 0 9
BITMAP
001F0000
001F0000
001F0000
001F0000
001F0000
001F0000
03E0FC00
03E0FC00
03E0FC00
03E0FC00
03E0FC00
03E0FC00
001F0000
001F0000
001F0000
001F0000
001F0000
001F0000
03FFFC00
03FFFC00
03FFFC00
03FFFC00
03FFFC00
03FFFC00
FC0003E0
FC0003E0
FC0003E0
FC0003E0
FC0003E0
FC0003E0
FC0003E0
FC0003E0
FC0003E0
FC0003E0
FC0003E0
FFFFFFE0
FFFFFFE0
FFFFFFE0
FFFFFFE0
FFFFFFE0
FFFFFFE0
FC0003E0
FC0003E0
FC0003E0
FC0003E0
FC0003E0
FC0003E0
FC0003E0
FC0003E0
FC0003E0
FC0003E0
FC0003E0
FC0003E0
FC0003E0
FC0003E0
FC0003E0
FC0003E0
FC0003E0
FC0003E0
ENDCHAR
STARTCHAR 198
ENCODING 198
SWIDTH 2304 0
DWIDTH 32 0
BBX 27 41 0 9
BITMAP
03FFFFE0
03FFFFE0
03FFFFE0
03FFFFE0
03FFFFE0
03FFFFE0
FC1F0000
FC1F0000
FC1F0000
FC1F0000
FC1F0000
FC1F0000
FC1F0000
FC1F0000
FC1F0000
FC1F0000
FC1F0000
FFFFFC00
FFFFFC00
FFFFFC00
FFFFFC00
FFFFFC00
FFFFFC00
FC1F0000
FC1F0000
FC1F0000
FC1F0000
FC1F0000
FC1F0000
FC1F0000
FC1F0000
FC1F0000
FC1F0000
FC1F0000
FC1F0000
FC1FFFE0
FC1FFFE0
FC1FFFE0
FC1FFFE0
FC1FFFE0
FC1FFFE0
ENDCHAR
STARTCHAR 199
ENCODING 199
SWIDTH 2304 0
DWIDTH 32 0
BBX 27 52 0 -2
BITMAP
03FFFC00
03FFFC00
03FFFC00
03FFFC00
03FFFC00
03FFFC00
FC0003E0
FC0003E0
FC0003E0
FC0003E0
FC0003E0
FC0003E0
FC000000
FC000000
FC000000
FC000000
FC000000
FC000000
FC000000
FC000000
FC000000
FC000000
FC000000
FC000000
FC000000
FC000000
FC000000
FC000000
FC000000
FC0003E0
FC0003E0
FC0003E0
FC0003E0
FC0003E0
FC0003E0
03FFFC00
03FFFC00
03FFFC00
03FFFC00
03FFFC00
03FFFC00
0000FC00
0000FC00
0000FC00
0000FC00
0000FC00
0000FC00
03FF0000
03FF0000
03FF0000
03FF0000
03FF0000
ENDCHAR
STARTCHAR 200
ENCODING 200
SWIDTH 2304 0
DWIDTH 32 0
BBX 27 59 0 9
BITMAP
03E00000
03E00000
03E00000
03E00000
03E00000
03E00000
001F0000
001F0000
001F0000
001F0000
001F0000
001F0000
00000000
00000000
00000000
00000000
00000000
00000000
FFFFFFE0
FFFFFFE0
FFFFFFE0
FFFFFFE0
FFFFFFE0
FFFFFFE0
FC000000
FC000000
FC000000
FC000000
FC000000
FC000000
FC000000
FC000000
FC000000
FC000000
FC000000
FFFFFC00
FFFFFC00
FFFFFC00
FFFFFC00
FFFFFC00
FFFFFC00
FC000000
FC000000
FC000000
FC000000
FC000000
FC000000
FC000000
FC000000
FC000000
FC000000
FC000000
FC000000
FFFFFFE0
FFFFFFE0
FFFFFFE0
FFFFFFE0
FFFFFFE0
FFFFFFE0
ENDCHAR
STARTCHAR 201
ENCODING 201
SWIDTH 2304 0
DWIDTH 32 0
BBX 27 59 0 9
BITMAP
0000FC00
0000FC00
0000FC00
0000FC00
0000FC00
0000FC00
001F0000
001F0000
001F0000
001F0000
001F0000
001F0000
00000000
00000000
00000000
00000000
00000000
00000000
FFFFFFE0
FFFFFFE0
FFFFFFE0
FFFFFFE0
FFFFFFE0
FFFFFFE0
FC000000
FC000000
FC000000
FC000000
FC000000
FC000000
FC000000
FC000000
FC000000
FC000000
FC000000
FFFFFC00
FFFFFC00
FFFFFC00
FFFFFC00
FFFFFC00
FFFFFC00
FC000000
FC000000
FC000000
FC000000
FC000000
FC000000
FC000000
FC000000
FC000000
FC000000
FC000000
FC000000
FFFFFFE0
FFFFFFE0
FFFFFFE0
FFFFFFE0
FFFFFFE0
FFFFFFE0
ENDCHAR
STARTCHAR 202
ENCODING 202
SWIDTH 2304 0
DWIDTH 32 0
BBX 27 59 0 9
BITMAP
001F0000
001F0000
001F0000
001F0000
001F0000
001F0000
03E0FC00
03E0FC00
03E0FC00
03E0FC00
03E0FC00
03E0FC00
00000000
00000000
00000000
00000000
00000000
00000000
FFFFFFE0
FFFFFFE0
FFFFFFE0
FFFFFFE0
FFFFFFE0
FFFFFFE0
FC000000
FC000000
FC000000
FC000000
FC000000
FC000000
FC000000
FC000000
FC000000
FC000000
FC000000
FFFFFC00
FFFFFC00
FFFFFC00
FFFFFC00
FFFFFC00
FFFFFC00
FC000000
FC000000
FC000000
FC000000
FC000000
FC000000
FC000000
FC000000
FC000000
FC000000
FC000000
FC000000
FFFFFFE0
FFFFFFE0
FFFFFFE0
FFFFFFE0
FFFFFFE0
FFFFFFE0
ENDCHAR
STARTCHAR 203
ENCODING 203
SWIDTH 2304 0
DWIDTH 32 0
BBX 27 53 0 9
BITMAP
03E0FC00
03E0FC00
03E0FC00
03E0FC00
03E0FC00
03E0FC00
00000000
00000000
00000000
00000000
00000000
00000000
FFFFFFE0
FFFFFFE0
FFFFFFE0
FFFFFFE0
FFFFFFE0
FFFFFFE0
FC000000
FC000000
FC000000
FC000000
FC000000
FC000000
FC000000
FC000000
FC000000
FC000000
FC000000
FFFFFC00
FFFFFC00
FFFFFC00
FFFFFC00
FFFFFC00
FFFFFC00
FC000000
FC000000
FC000000
FC000000
FC000000
FC000000
FC000000
FC000000
FC000000
FC000000
FC000000
FC000000
FFFFFFE0
FFFFFFE0
FFFFFFE0
FFFFFFE0
FFFFFFE0
FFFFFFE0
ENDCHAR
STARTCHAR 204
ENCODING 204
SWIDTH 2304 0
DWIDTH 32 0
BBX 16 59 6 9
BITMAP
F800
F800
F800
F800
F800
F800
07C0
07C0
07C0
07C0
07C0
07C0
0000
0000
0000
0000
0000
0000
FFFF
FFFF
FFFF
FFFF
FFFF
FFFF
07C0
07C0
07C0
07C0
07C0
07C0
07C0
07C0
07C0
07C0
07C0
07C0
07C0
07C0
07C0
07C0
07C0
07C0
07C0
07C0
07C0
07C0
07C0
07C0
07C0
07C0
07C0
07C0
07C0
FFFF
FFFF
FFFF
FFFF
FFFF
FFFF
ENDCHAR
STARTCHAR 205
ENCODING 205
SWIDTH 2304 0
DWIDTH 32 0
BBX 16 59 6 9
BITMAP
003F
003F
003F
003F
003F
003F
07C0
07C0
07C0
07C0
07C0
07C0
0000
0000
0000
0000
0000
0000
FFFF
FFFF
FFFF
FFFF
FFFF
FFFF
07C0
07C0
07C0
07C0
07C0
07C0
07C0
07C0
07C0
07C0
07C0
07C0
07C0
07C0
07C0
07C0
07C0
07C0
07C0
07C0
07C0
07C0
07C0
07C0
07C0
07C0
07C0
07C0
07C0
FFFF
FFFF
FFFF
FFFF
FFFF
FFFF
ENDCHAR
STARTCHAR 206
ENCODING 206
SWIDTH 2304 0
DWIDTH 32 0
BBX 16 59 6 9
BITMAP
07C0
07C0
07C0
07C0
07C0
07C0
F83F
F83F
F83F
F83F
F83F
F83F
0000
0000
0000
0000
0000
0000
FFFF
FFFF
FFFF
FFFF
FFFF
FFFF
07C0
07C0
07C0
07C0
07C0
07C0
07C0
07C0
07C0
07C0
07C0
07C0
07C0
07C0
07C0
07C0
07C0
07C0
07C0
07C0
07C0
07C0
07C0
07C0
07C0
07C0
07C0
07C0
07C0
FFFF
FFFF
FFFF
FFFF
FFFF
FFFF
ENDCHAR
STARTCHAR 207
ENCODING 207
SWIDTH 2304 0
DWIDTH 32 0
BBX 16 53 6 9
BITMAP
F83F
F83F
F83F
F83F
F83F
F83F
0000
0000
0000
0000
0000
0000
FFFF
FFFF
FFFF
FFFF
FFFF
FFFF
07C0
07C0
07C0
07C0
07C0
07C0
07C0
07C0
07C0
07C0
07C0
07C0
07C0
07C0
07C0
07C0
07C0
07C0
07C0
07C0
07C0
07C0
07C0
07C0
07C0
07C0
07C0
07C0
07C0
FFFF
FFFF
FFFF
FFFF
FFFF
FFFF
ENDCHAR
STARTCHAR 208
ENCODING 208
SWIDTH 2304 0
DWIDTH 32 0
BBX 27 41 0 9
BITMAP
03FFFC00
03FFFC00
03FFFC00
03FFFC00
03FFFC00
03FFFC00
03E003E0
03E003E0
03E003E0
03E003E0
03E003E0
03E003E0
03E003E0
03E003E0
03E003E0
03E003E0
03E003E0
FFFF03E0
FFFF03E0
FFFF03E0
FFFF03E0
FFFF03E0
FFFF03E0
03E003E0
03E003E0
03E003E0
03E003E0
03E003E0
03E003E0
03E003E0
03E003E0
03E003E0
03E003E0
03E003E0
03E003E0
03FFFC00
03FFFC00
03FFFC00
03FFFC00
03FFFC00
03FFFC00
ENDCHAR
STARTCHAR 209
ENCODING 209
SWIDTH 2304 0
DWIDTH 32 0
BBX 27 59 0 9
BITMAP
03FF03E0
03FF03E0
03FF03E0
03FF03E0
03FF03E0
03FF03E0
FC1FFC00
FC1FFC00
FC1FFC00
FC1FFC00
FC1FFC00
FC1FFC00
00000000
00000000
00000000
00000000
00000000
00000000
FC0003E0
FC0003E0
FC0003E0
FC0003E0
FC0003E0
FC0003E0
FC0003E0
FC0003E0
FC0003E0
FC0003E0
FC0003E0
FC0003E0
FFE003E0
FFE003E0
FFE003E0
FFE003E0
FFE003E0
FC1F03E0
FC1F03E0
FC1F03E0
FC1F03E0
FC1F03E0
FC1F03E0
FC00FFE0
FC00FFE0
FC00FFE0
FC00FFE0
FC00FFE0
FC00FFE0
FC0003E0
FC0003E0
FC0003E0
FC0003E0
FC0003E0
FC0003E0
FC0003E0
FC0003E0
FC0003E0
FC0003E0
FC0003E0
FC0003E0
ENDCHAR
STARTCHAR 210
ENCODING 210
SWIDTH 2304 0
DWIDTH 32 0
BBX 27 59 0 9
BITMAP
03E00000
03E00000
03E00000
03E00000
03E00000
03E00000
001F0000
001F0000
001F0000
001F0000
001F0000
001F0000
00000000
00000000
00000000
00000000
00000000
00000000
03FFFC00
03FFFC00
03FFFC00
03FFFC00
03FFFC00
03FFFC00
FC0003E0
FC0003E0
FC0003E0
FC0003E0
FC0003E0
FC0003E0
FC0003E0
FC0003E0
FC0003E0
FC0003E0
FC0003E0
FC0003E0
FC0003E0
FC0003E0
FC0003E0
FC0003E0
FC0003E0
FC0003E0
FC0003E0
FC0003E0
FC0003E0
FC0003E0
FC0003E0
FC0003E0
FC0003E0
FC0003E0
FC0003E0
FC0003E0
FC0003E0
03FFFC00
03FFFC00
03FFFC00
03FFFC00
03FFFC00
03FFFC00
ENDCHAR
STARTCHAR 211
ENCODING 211
SWIDTH 2304 0
DWIDTH 32 0
BBX 27 59 0 9
BITMAP
0000FC00
0000FC00
0000FC00
0000FC00
0000FC00
0000FC00
001F0000
001F0000
001F0000
001F0000
001F0000
001F0000
00000000
00000000
00000000
00000000
00000000
00000000
03FFFC00
03FFFC00
03FFFC00
03FFFC00
03FFFC00
03FFFC00
FC0003E0
FC0003E0
FC0003E0
FC0003E0
FC0003E0
FC0003E0
FC0003E0
FC0003E0
FC0003E0
FC0003E0
FC0003E0
FC0003E0
FC0003E0
FC0003E0
FC0003E0
FC0003E0
FC0003E0
FC0003E0
FC0003E0
FC0003E0
FC0003E0
FC0003E0
FC0003E0
FC0003E0
FC0003E0
FC0003E0
FC0003E0
FC0003E0
FC0003E0
03FFFC00
03FFFC00
03FFFC00
03FFFC00
03FFFC00
03FFFC00
ENDCHAR
STARTCHAR 212
ENCODING 212
SWIDTH 2304 0
DWIDTH 32 0
BBX 27 59 0 9
BITMAP
001F0000
001F0000
001F0000
001F0000
001F0000
001F0000
03E0FC00
03E0FC00
03E0FC00
03E0FC00
03E0FC00
03E0FC00
00000000
00000000
00000000
00000000
00000000
00000000
03FFFC00
03FFFC00
03FFFC00
03FFFC00
03FFFC00
03FFFC00
FC0003E0
FC0003E0
FC0003E0
FC0003E0
FC0003E0
FC0003E0
FC0003E0
FC0003E0
FC0003E0
FC0003E0
FC0003E0
FC0003E0
FC0003E0
FC0003E0
FC0003E0
FC0003E0
FC0003E0
FC0003E0
FC0003E0
FC0003E0
FC0003E0
FC0003E0
FC0003E0
FC0003E0
FC0003E0
FC0003E0
FC0003E0
FC0003E0
FC0003E0
03FFFC00
03FFFC00
03FFFC00
03FFFC00
03FFFC00
03FFFC00
ENDCHAR
STARTCHAR 213
ENCODING 213
SWIDTH 2304 0
DWIDTH 32 0
BBX 27 59 0 9
BITMAP
03FF03E0
03FF03E0
03FF03E0
03FF03E0
03FF03E0
03FF03E0
FC1FFC00
FC1FFC00
FC1FFC00
FC1FFC00
FC1FFC00
FC1FFC00
00000000
00000000
00000000
00000000
00000000
00000000
03FFFC00
03FFFC00
03FFFC00
03FFFC00
03FFFC00
03FFFC00
FC0003E0
FC0003E0
FC0003E0
FC0003E0
FC0003E0
FC0003E0
FC0003E0
FC0003E0
FC0003E0
FC0003E0
FC0003E0
FC0003E0
FC0003E0
FC0003E0
FC0003E0
FC0003E0
FC0003E0
FC0003E0
FC0003E0
FC0003E0
FC0003E0
FC0003E0
FC0003E0
FC0003E0
FC0003E0
FC0003E0
FC0003E0
FC0003E0
FC0003E0
03FFFC00
03FFFC00
03FFFC00
03FFFC00
03FFFC00
03FFFC00
ENDCHAR
STARTCHAR 214
ENCODING 214
SWIDTH 2304 0
DWIDTH 32 0
BBX 27 53 0 9
BITMAP
03E0FC00
03E0FC00
03E0FC00
03E0FC00
03E0FC00
03E0FC00
00000000
00000000
00000000
00000000
00000000
00000000
03FFFC00
03FFFC00
03FFFC00
03FFFC00
03FFFC00
03FFFC00
FC0003E0
FC0003E0
FC0003E0
FC0003E0
FC0003E0
FC0003E0
FC0003E0
FC0003E0
FC0003E0
FC0003E0
FC0003E0
FC0003E0
FC0003E0
FC0003E0
FC0003E0
FC0003E0
FC0003E0
FC0003E0
FC0003E0
FC0003E0
FC0003E0
FC0003E0
FC0003E0
FC0003E0
FC0003E0
FC0003E0
FC0003E0
FC0003E0
FC0003E0
03FFFC00
03FFFC00
03FFFC00
03FFFC00
03FFFC00
03FFFC00
ENDCHAR
STARTCHAR 215
ENCODING 215
SWIDTH 2304 0
DWIDTH 32 0
BBX 27 29 0 15
BITMAP
FC0003E0
FC0003E0
FC0003E0
FC0003E0
FC0003E0
FC0003E0
03E0FC00
03E0FC00
03E0FC00
03E0FC00
03E0FC00
001F0000
001F0000
001F0000
001F0000
001F0000
001F0000
03E0FC00
03E0FC00
03E0FC00
03E0FC00
03E0FC00
03E0FC00
FC0003E0
FC0003E0
FC0003E0
FC0003E0
FC0003E0
FC0003E0
ENDCHAR
STARTCHAR 216
ENCODING 216
SWIDTH 2304 0
DWIDTH 32 0
BBX 27 53 0 3
BITMAP
000003E0
000003E0
000003E0
000003E0
000003E0
000003E0
03FFFC00
03FFFC00
03FFFC00
03FFFC00
03FFFC00
03FFFC00
FC00FFE0
FC00FFE0
FC00FFE0
FC00FFE0
FC00FFE0
FC00FFE0
FC1F03E0
FC1F03E0
FC1F03E0
FC1F03E0
FC1F03E0
FC1F03E0
FC1F03E0
FC1F03E0
FC1F03E0
FC1F03E0
FC1F03E0
FC1F03E0
FC1F03E0
FC1F03E0
FC1F03E0
FC1F03E0
FC1F03E0
FFE003E0
FFE003E0
FFE003E0
FFE003E0
FFE003E0
FFE003E0
03FFFC00
03FFFC00
03FFFC00
03FFFC00
03FFFC00
03FFFC00
FC000000
FC000000
FC000000
FC000000
FC000000
FC000000
ENDCHAR
STARTCHAR 217
ENCODING 217
SWIDTH 2304 0
DWIDTH 32 0
BBX 27 59 0 9
BITMAP
03E00000
03E00000
03E00000
03E00000
03E00000
03E00000
001F0000
001F0000
001F0000
001F0000
001F0000
001F0000
00000000
00000000
00000000
00000000
00000000
00000000
FC0003E0
FC0003E0
FC0003E0
FC0003E0
FC0003E0
FC0003E0
FC0003E0
FC0003E0
FC0003E0
FC0003E0
FC0003E0
FC0003E0
FC0003E0
FC0003E0
FC0003E0
FC0003E0
FC0003E0
FC0003E0
FC0003E0
FC0003E0
FC0003E0
FC0003E0
FC0003E0
FC0003E0
FC0003E0
FC0003E0
FC0003E0
FC0003E0
FC0003E0
FC0003E0
FC0003E0
FC0003E0
FC0003E0
FC0003E0
FC0003E0
03FFFC00
03FFFC00
03FFFC00
03FFFC00
03FFFC00
03FFFC00
ENDCHAR
STARTCHAR 218
ENCODING 218
SWIDTH 2304 0
DWIDTH 32 0
BBX 27 59 0 9
BITMAP
0000FC00
0000FC00
0000FC00
0000FC00
0000FC00
0000FC00
001F0000
001F0000
001F0000
001F0000
001F0000
001F0000
00000000
00000000
00000000
00000000
00000000
00000000
FC0003E0
FC0003E0
FC0003E0
FC0003E0
FC0003E0
FC0003E0
FC0003E0
FC0003E0
FC0003E0
FC0003E0
FC0003E0
FC0003E0
FC0003E0
FC0003E0
FC0003E0
FC0003E0
FC0003E0
FC0003E0
FC0003E0
FC0003E0
FC0003E0
FC0003E0
FC0003E0
FC0003E0
FC0003E0
FC0003E0
FC0003E0
FC0003E0
FC0003E0
FC0003E0
FC0003E0
FC0003E0
FC0003E0
FC0003E0
FC0003E0
03FFFC00
03FFFC00
03FFFC00
03FFFC00
03FFFC00
03FFFC00
ENDCHAR
STARTCHAR 219
ENCODING 219
SWIDTH 2304 0
DWIDTH 32 0
BBX 27 59 0 9
BITMAP
001F0000
001F0000
001F0000
001F0000
001F0000
001F0000
03E0FC00
03E0FC00
03E0FC00
03E0FC00
03E0FC00
03E0FC00
00000000
00000000
00000000
00000000
00000000
00000000
FC0003E0
FC0003E0
FC0003E0
FC0003E0
FC0003E0
FC0003E0
FC0003E0
FC0003E0
FC0003E0
FC0003E0
FC0003E0
FC0003E0
FC0003E0
FC0003E0
FC0003E0
FC0003E0
FC0003E0
FC0003E0
FC0003E0
FC0003E0
FC0003E0
FC0003E0
FC0003E0
FC0003E0
FC0003E0
FC0003E0
FC0003E0
FC0003E0
FC0003E0
FC0003E0
FC0003E0
FC0003E0
FC0003E0
FC0003E0
FC0003E0
03FFFC00
03FFFC00
03FFFC00
03FFFC00
03FFFC00
03FFFC00
ENDCHAR
STARTCHAR 220
ENCODING 220
SWIDTH 2304 0
DWIDTH 32 0
BBX 27 53 0 9
BITMAP
03E0FC00
03E0FC00
03E0FC00
03E0FC00
03E0FC00
03E0FC00
00000000
00000000
00000000
00000000
00000000
00000000
FC0003E0
FC0003E0
FC0003E0
FC0003E0
FC0003E0
FC0003E0
FC0003E0
FC0003E0
FC0003E0
FC0003E0
FC0003E0
FC0003E0
FC0003E0
FC0003E0
FC0003E0
FC0003E0
FC0003E0
FC0003E0
FC0003E0
FC0003E0
FC0003E0
FC0003E0
FC0003E0
FC0003E0
FC0003E0
FC0003E0
FC0003E0
FC0003E0
FC0003E0
FC0003E0
FC0003E0
FC0003E0
FC0003E0
FC0003E0
FC0003E0
03FFFC00
03FFFC00
03FFFC00
03FFFC00
03FFFC00
03FFFC00
ENDCHAR
STARTCHAR 221
ENCODING 221
SWIDTH 2304 0
DWIDTH 32 0
BBX 27 59 0 9
BITMAP
0000FC00
0000FC00
0000FC00
0000FC00
0000FC00
0000FC00
001F0000
001F0000
001F0000
001F0000
001F0000
001F0000
00000000
00000000
00000000
00000000
00000000
00000000
FC0003E0
FC0003E0
FC0003E0
FC0003E0
FC0003E0
FC0003E0
FC0003E0
FC0003E0
FC0003E0
FC0003E0
FC0003E0
FC0003E0
03E0FC00
03E0FC00
03E0FC00
03E0FC00
03E0FC00
001F0000
001F0000
001F0000
001F0000
001F0000
001F0000
001F0000
001F0000
001F0000
001F0000
001F0000
001F0000
001F0000
001F0000
001F0000
001F0000
001F0000
001F0000
001F0000
001F0000
001F0000
001F0000
001F0000
001F0000
ENDCHAR
STARTCHAR 222
ENCODING 222
SWIDTH 2304 0
DWIDTH 32 0
BBX 21 41 6 9
BITMAP
F80000
F80000
F80000
F80000
F80000
F80000
FFFF00
FFFF00
FFFF00
FFFF00
FFFF00
FFFF00
F800F8
F800F8
F800F8
F800F8
F800F8
F800F8
F800F8
F800F8
F800F8
F800F8
F800F8
F800F8
F800F8
F800F8
F800F8
F800F8
F800F8
FFFF00
FFFF00
FFFF00
FFFF00
FFFF00
FFFF00
F80000
F80000
F80000
F80000
F80000
F80000
ENDCHAR
STARTCHAR 223
ENCODING 223
SWIDTH 2304 0
DWIDTH 32 0
BBX 27 41 0 9
BITMAP
03FFFC00
03FFFC00
03FFFC00
03FFFC00
03FFFC00
03FFFC00
FC0003E0
FC0003E0
FC0003E0
FC0003E0
FC0003E0
FC0003E0
FC00FC00
FC00FC00
FC00FC00
FC00FC00
FC00FC00
FC1F0000
FC1F0000
FC1F0000
FC1F0000
FC1F0000
FC1F0000
FC00FC00
FC00FC00
FC00FC00
FC00FC00
FC00FC00
FC00FC00
FC0003E0
FC0003E0
FC0003E0
FC0003E0
FC0003E0
FC0003E0
FC1FFC00
FC1FFC00
FC1FFC00
FC1FFC00
FC1FFC00
FC1FFC00
ENDCHAR
STARTCHAR 224
ENCODING 224
SWIDTH 2304 0
DWIDTH 32 0
BBX 27 47 0 9
BITMAP
03E00000
03E00000
03E00000
03E00000
03E00000
03E00000
001F0000
001F0000
001F0000
001F0000
001F0000
001F0000
00000000
00000000
00000000
00000000
00000000
00000000
03FFFC00
03FFFC00
03FFFC00
03FFFC00
03FFFC00
000003E0
000003E0
000003E0
000003E0
000003E0
000003E0
03FFFFE0
03FFFFE0
03FFFFE0
03FFFFE0
03FFFFE0
03FFFFE0
FC0003E0
FC0003E0
FC0003E0
FC0003E0
FC0003E0
FC0003E0
03FFFFE0
03FFFFE0
03FFFFE0
03FFFFE0
03FFFFE0
03FFFFE0
ENDCHAR
STARTCHAR 225
ENCODING 225
SWIDTH 2304 0
DWIDTH 32 0
BBX 27 47 0 9
BITMAP
0000FC00
0000FC00
0000FC00
0000FC00
0000FC00
0000FC00
001F0000
001F0000
001F0000
001F0000
001F0000
001F0000
00000000
00000000
00000000
00000000
00000000
00000000
03FFFC00
03FFFC00
03FFFC00
03FFFC00
03FFFC00
000003E0
000003E0
000003E0
000003E0
000003E0
000003E0
03FFFFE0
03FFFFE0
03FFFFE0
03FFFFE0
03FFFFE0
03FFFFE0
FC0003E0
FC0003E0
FC0003E0
FC0003E0
FC0003E0
FC0003E0
03FFFFE0
03FFFFE0
03FFFFE0
03FFFFE0
03FFFFE0
03FFFFE0
ENDCHAR
STARTCHAR 226
ENCODING 226
SWIDTH 2304 0
DWIDTH 32 0
BBX 27 47 0 9
BITMAP
001F0000
001F0000
001F0000
001F0000
001F0000
001F0000
03E0FC00
03E0FC00
03E0FC00
03E0FC00
03E0FC00
03E0FC00
00000000
00000000
00000000
00000000
00000000
00000000
03FFFC00
03FFFC00
03FFFC00
03FFFC00
03FFFC00
000003E0
000003E0
000003E0
000003E0
000003E0
000003E0
03FFFFE0
03FFFFE0
03FFFFE0
03FFFFE0
03FFFFE0
03FFFFE0
FC0003E0
FC0003E0
FC0003E0
FC0003E0
FC0003E0
FC0003E0
03FFFFE0
03FFFFE0
03FFFFE0
03FFFFE0
03FFFFE0
03FFFFE0
ENDCHAR
STARTCHAR 227
ENCODING 227
SWIDTH 2304 0
DWIDTH 32 0
BBX 27 47 0 9
BITMAP
03FF03E0
03FF03E0
03FF03E0
03FF03E0
03FF03E0
03FF03E0
FC1FFC00
FC1FFC00
FC1FFC00
FC1FFC00
FC1FFC00
FC1FFC00
00000000
00000000
00000000
00000000
00000000
00000000
03FFFC00
03FFFC00
03FFFC00
03FFFC00
03FFFC00
000003E0
000003E0
000003E0
000003E0
000003E0
000003E0
03FFFFE0
03FFFFE0
03FFFFE0
03FFFFE0
03FFFFE0
03FFFFE0
FC0003E0
FC0003E0
FC0003E0
FC0003E0
FC0003E0
FC0003E0
03FFFFE0
03FFFFE0
03FFFFE0
03FFFFE0
03FFFFE0
03FFFFE0
ENDCHAR
STARTCHAR 228
ENCODING 228
SWIDTH 2304 0
DWIDTH 32 0
BBX 27 41 0 9
BITMAP
03E0FC00
03E0FC00
03E0FC00
03E0FC00
03E0FC00
03E0FC00
00000000
00000000
00000000
00000000
00000000
00000000
03FFFC00
03FFFC00
03FFFC00
03FFFC00
03FFFC00
000003E0
000003E0
000003E0
000003E0
000003E0
000003E0
03FFFFE0
03FFFFE0
03FFFFE0
03FFFFE0
03FFFFE0
03FFFFE0
FC0003E0
FC0003E0
FC0003E0
FC0003E0
FC0003E0
FC0003E0
03FFFFE0
03FFFFE0
03FFFFE0
03FFFFE0
03FFFFE0
03FFFFE0
ENDCHAR
STARTCHAR 229
ENCODING 229
SWIDTH 2304 0
DWIDTH 32 0
BBX 27 47 0 9
BITMAP
001F0000
001F0000
001F0000
001F0000
001F0000
001F0000
03E0FC00
03E0FC00
03E0FC00
03E0FC00
03E0FC00
03E0FC00
001F0000
001F0000
001F0000
001F0000
001F0000
001F0000
03FFFC00
03FFFC00
03FFFC00
03FFFC00
03FFFC00
000003E0
000003E0
000003E0
000003E0
000003E0
000003E0
03FFFFE0
03FFFFE0
03FFFFE0
03FFFFE0
03FFFFE0
03FFFFE0
FC0003E0
FC0003E0
FC0003E0
FC0003E0
FC0003E0
FC0003E0
03FFFFE0
03FFFFE0
03FFFFE0
03FFFFE0
03FFFFE0
03FFFFE0
ENDCHAR
STARTCHAR 230
ENCODING 230
SWIDTH 2304 0
DWIDTH 32 0
BBX 27 29 0 9
BITMAP
03FFFC00
03FFFC00
03FFFC00
03FFFC00
03FFFC00
001F03E0
001F03E0
001F03E0
001F03E0
001F03E0
001F03E0
03FFFC00
03FFFC00
03FFFC00
03FFFC00
03FFFC00
03FFFC00
FC1F0000
FC1F0000
FC1F0000
FC1F0000
FC1F0000
FC1F0000
03FFFFE0
03FFFFE0
03FFFFE0
03FFFFE0
03FFFFE0
03FFFFE0
ENDCHAR
STARTCHAR 231
ENCODING 231
SWIDTH 2304 0
DWIDTH 32 0
BBX 27 40 0 -2
BITMAP
03FFFC00
03FFFC00
03FFFC00
03FFFC00
03FFFC00
FC0003E0
FC0003E0
FC0003E0
FC0003E0
FC0003E0
FC0003E0
FC000000
FC000000
FC000000
FC000000
FC000000
FC000000
FC0003E0
FC0003E0
FC0003E0
FC0003E0
FC0003E0
FC0003E0
03FFFC00
03FFFC00
03FFFC00
03FFFC00
03FFFC00
03FFFC00
0000FC00
0000FC00
0000FC00
0000FC00
0000FC00
0000FC00
03FF0000
03FF0000
03FF0000
03FF0000
03FF0000
ENDCHAR
STARTCHAR 232
ENCODING 232
SWIDTH 2304 0
DWIDTH 32 0
BBX 27 47 0 9
BITMAP
03E00000
03E00000
03E00000
03E00000
03E00000
03E00000
001F0000
001F0000
001F0000
001F0000
001F0000
001F0000
00000000
00000000
00000000
00000000
00000000
00000000
03FFFC00
03FFFC00
03FFFC00
03FFFC00
03FFFC00
FC0003E0
FC0003E0
FC0003E0
FC0003E0
FC0003E0
FC0003E0
FFFFFC00
FFFFFC00
FFFFFC00
FFFFFC00
FFFFFC00
FFFFFC00
FC000000
FC000000
FC000000
FC000000
FC000000
FC000000
03FFFC00
03FFFC00
03FFFC00
03FFFC00
03FFFC00
03FFFC00
ENDCHAR
STARTCHAR 233
ENCODING 233
SWIDTH 2304 0
DWIDTH 32 0
BBX 27 47 0 9
BITMAP
0000FC00
0000FC00
0000FC00
0000FC00
0000FC00
0000FC00
001F0000
001F0000
001F0000
001F0000
001F0000
001F0000
00000000
00000000
00000000
00000000
00000000
00000000
03FFFC00
03FFFC00
03FFFC00
03FFFC00
03FFFC00
FC0003E0
FC0003E0
FC0003E0
FC0003E0
FC0003E0
FC0003E0
FFFFFC00
FFFFFC00
FFFFFC00
FFFFFC00
FFFFFC00
FFFFFC00
FC000000
FC000000
FC000000
FC000000
FC000000
FC000000
03FFFC00
03FFFC00
03FFFC00
03FFFC00
03FFFC00
03FFFC00
ENDCHAR
STARTCHAR 234
ENCODING 234
SWIDTH 2304 0
DWIDTH 32 0
BBX 27 47 0 9
BITMAP
001F0000
001F0000
001F0000
001F0000
001F0000
001F0000
03E0FC00
03E0FC00
03E0FC00
03E0FC00
03E0FC00
03E0FC00
00000000
00000000
00000000
00000000
00000000
00000000
03FFFC00
03FFFC00
03FFFC00
03FFFC00
03FFFC00
FC0003E0
FC0003E0
FC0003E0
FC0003E0
FC0003E0
FC0003E0
FFFFFC00
FFFFFC00
FFFFFC00
FFFFFC00
FFFFFC00
FFFFFC00
FC000000
FC000000
FC000000
FC000000
FC000000
FC000000
03FFFC00
03FFFC00
03FFFC00
03FFFC00
03FFFC00
03FFFC00
ENDCHAR
STARTCHAR 235
ENCODING 235
SWIDTH 2304 0
DWIDTH 32 0
BBX 27 41 0 9
BITMAP
03E0FC00
03E0FC00
03E0FC00
03E0FC00
03E0FC00
03E0FC00
00000000
00000000
00000000
00000000
00000000
00000000
03FFFC00
03FFFC00
03FFFC00
03FFFC00
03FFFC00
FC0003E0
FC0003E0
FC0003E0
FC0003E0
FC0003E0
FC0003E0
FFFFFC00
FFFFFC00
FFFFFC00
FFFFFC00
FFFFFC00
FFFFFC00
FC000000
FC000000
FC000000
FC000000
FC000000
FC000000
03FFFC00
03FFFC00
03FFFC00
03FFFC00
03FFFC00
03FFFC00
ENDCHAR
STARTCHAR 236
ENCODING 236
SWIDTH 2304 0
DWIDTH 32 0
BBX 16 47 6 9
BITMAP
F800
F800
F800
F800
F800
F800
07C0
07C0
07C0
07C0
07C0
07C0
0000
0000
0000
0000
0000
0000
FFC0
FFC0
FFC0
FFC0
FFC0
07C0
07C0
07C0
07C0
07C0
07C0
07C0
07C0
07C0
07C0
07C0
07C0
07C0
07C0
07C0
07C0
07C0
07C0
FFFF
FFFF
FFFF
FFFF
FFFF
FFFF
ENDCHAR
STARTCHAR 237
ENCODING 237
SWIDTH 2304 0
DWIDTH 32 0
BBX 16 47 6 9
BITMAP
003F
003F
003F
003F
003F
003F
07C0
07C0
07C0
07C0
07C0
07C0
0000
0000
0000
0000
0000
0000
FFC0
FFC0
FFC0
FFC0
FFC0
07C0
07C0
07C0
07C0
07C0
07C0
07C0
07C0
07C0
07C0
07C0
07C0
07C0
07C0
07C0
07C0
07C0
07C0
FFFF
FFFF
FFFF
FFFF
FFFF
FFFF
ENDCHAR
STARTCHAR 238
ENCODING 238
SWIDTH 2304 0
DWIDTH 32 0
BBX 16 47 6 9
BITMAP
07C0
07C0
07C0
07C0
07C0
07C0
F83F
F83F
F83F
F83F
F83F
F83F
0000
0000
0000
0000
0000
0000
FFC0
FFC0
FFC0
FFC0
FFC0
07C0
07C0
07C0
07C0
07C0
07C0
07C0
07C0
07C0
07C0
07C0
07C0
07C0
07C0
07C0
07C0
07C0
07C0
FFFF
FFFF
FFFF
FFFF
FFFF
FFFF
ENDCHAR
STARTCHAR 239
ENCODING 239
SWIDTH 2304 0
DWIDTH 32 0
BBX 16 41 6 9
BITMAP
F83F
F83F
F83F
F83F
F83F
F83F
0000
0000
0000
0000
0000
0000
FFC0
FFC0
FFC0
FFC0
FFC0
07C0
07C0
07C0
07C0
07C0
07C0
07C0
07C0
07C0
07C0
07C0
07C0
07C0
07C0
07C0
07C0
07C0
07C0
FFFF
FFFF
FFFF
FFFF
FFFF
FFFF
ENDCHAR
STARTCHAR 240
ENCODING 240
SWIDTH 2304 0
DWIDTH 32 0
BBX 27 53 0 9
BITMAP
03E0FC00
03E0FC00
03E0FC00
03E0FC00
03E0FC00
03E0FC00
001F0000
001F0000
001F0000
001F0000
001F0000
001F0000
03E0FC00
03E0FC00
03E0FC00
03E0FC00
03E0FC00
03E0FC00
000003E0
000003E0
000003E0
000003E0
000003E0
000003E0
03FFFFE0
03FFFFE0
03FFFFE0
03FFFFE0
03FFFFE0
FC0003E0
FC0003E0
FC0003E0
FC0003E0
FC0003E0
FC0003E0
FC0003E0
FC0003E0
FC0003E0
FC0003E0
FC0003E0
FC0003E0
FC0003E0
FC0003E0
FC0003E0
FC0003E0
FC0003E0
FC0003E0
03FFFC00
03FFFC00
03FFFC00
03FFFC00
03FFFC00
03FFFC00
ENDCHAR
STARTCHAR 241
ENCODING 241
SWIDTH 2304 0
DWIDTH 32 0
BBX 27 47 0 9
BITMAP
03FF03E0
03FF03E0
03FF03E0
03FF03E0
03FF03E0
03FF03E0
FC1FFC00
FC1FFC00
FC1FFC00
FC1FFC00
FC1FFC00
FC1FFC00
00000000
00000000
00000000
00000000
00000000
00000000
FC1FFC00
FC1FFC00
FC1FFC00
FC1FFC00
FC1FFC00
FFE003E0
FFE003E0
FFE003E0
FFE003E0
FFE003E0
FFE003E0
FC0003E0
FC0003E0
FC0003E0
FC0003E0
FC0003E0
FC0003E0
FC0003E0
FC0003E0
FC0003E0
FC0003E0
FC0003E0
FC0003E0
FC0003E0
FC0003E0
FC0003E0
FC0003E0
FC0003E0
FC0003E0
ENDCHAR
STARTCHAR 242
ENCODING 242
SWIDTH 2304 0
DWIDTH 32 0
BBX 27 47 0 9
BITMAP
03E00000
03E00000
03E00000
03E00000
03E00000
03E00000
001F0000
001F0000
001F0000
001F0000
001F0000
001F0000
00000000
00000000
00000000
00000000
00000000
00000000
03FFFC00
03FFFC00
03FFFC00
03FFFC00
03FFFC00
FC0003E0
FC0003E0
FC0003E0
FC0003E0
FC0003E0
FC0003E0
FC0003E0
FC0003E0
FC0003E0
FC0003E0
FC0003E0
FC0003E0
FC0003E0
FC0003E0
FC0003E0
FC0003E0
FC0003E0
FC0003E0
03FFFC00
03FFFC00
03FFFC00
03FFFC00
03FFFC00
03FFFC00
ENDCHAR
STARTCHAR 243
ENCODING 243
SWIDTH 2304 0
DWIDTH 32 0
BBX 27 47 0 9
BITMAP
0000FC00
0000FC00
0000FC00
0000FC00
0000FC00
0000FC00
001F0000
001F0000
001F0000
001F0000
001F0000
001F0000
00000000
00000000
00000000
00000000
00000000
00000000
03FFFC00
03FFFC00
03FFFC00
03FFFC00
03FFFC00
FC0003E0
FC0003E0
FC0003E0
FC0003E0
FC0003E0
FC0003E0
FC0003E0
FC0003E0
FC0003E0
FC0003E0
FC0003E0
FC0003E0
FC0003E0
FC0003E0
FC0003E0
FC0003E0
FC0003E0
FC0003E0
03FFFC00
03FFFC00
03FFFC00
03FFFC00
03FFFC00
03FFFC00
ENDCHAR
STARTCHAR 244
ENCODING 244
SWIDTH 2304 0
DWIDTH 32 0
BBX 27 47 0 9
BITMAP
001F0000
001F0000
001F0000
001F0000
001F0000
001F0000
03E0FC00
03E0FC00
03E0FC00
03E0FC00
03E0FC00
03E0FC00
00000000
00000000
00000000
00000000
00000000
00000000
03FFFC00
03FFFC00
03FFFC00
03FFFC00
03FFFC00
FC0003E0
FC0003E0
FC0003E0
FC0003E0
FC0003E0
FC0003E0
FC0003E0
FC0003E0
FC0003E0
FC0003E0
FC0003E0
FC0003E0
FC0003E0
FC0003E0
FC0003E0
FC0003E0
FC0003E0
FC0003E0
03FFFC00
03FFFC00
03FFFC00
03FFFC00
03FFFC00
03FFFC00
ENDCHAR
STARTCHAR 245
ENCODING 245
SWIDTH 2304 0
DWIDTH 32 0
BBX 27 47 0 9
BITMAP
03FF03E0
03FF03E0
03FF03E0
03FF03E0
03FF03E0
03FF03E0
FC1FFC00
FC1FFC00
FC1FFC00
FC1FFC00
FC1FFC00
FC1FFC00
00000000
00000000
00000000
00000000
00000000
00000000
03FFFC00
03FFFC00
03FFFC00
03FFFC00
03FFFC00
FC0003E0
FC0003E0
FC0003E0
FC0003E0
FC0003E0
FC0003E0
FC0003E0
FC0003E0
FC0003E0
FC0003E0
FC0003E0
FC0003E0
FC0003E0
FC0003E0
FC0003E0
FC0003E0
FC0003E0
FC0003E0
03FFFC00
03FFFC00
03FFFC00
03FFFC00
03FFFC00
03FFFC00
ENDCHAR
STARTCHAR 246
ENCODING 246
SWIDTH 2304 0
DWIDTH 32 0
BBX 27 41 0 9
BITMAP
03E0FC00
03E0FC00
03E0FC00
03E0FC00
03E0FC00
03E0FC00
00000000
00000000
00000000
00000000
00000000
00000000
03FFFC00
03FFFC00
03FFFC00
03FFFC00
03FFFC00
FC0003E0
FC0003E0
FC0003E0
FC0003E0
FC0003E0
FC0003E0
FC0003E0
FC0003E0
FC0003E0
FC0003E0
FC0003E0
FC0003E0
FC0003E0
FC0003E0
FC0003E0
FC0003E0
FC0003E0
FC0003E0
03FFFC00
03FFFC00
03FFFC00
03FFFC00
03FFFC00
03FFFC00
ENDCHAR
STARTCHAR 247
ENCODING 247
SWIDTH 2304 0
DWIDTH 32 0
BBX 27 29 0 15
BITMAP
001F0000
001F0000
001F0000
001F0000
001F0000
001F0000
00000000
00000000
00000000
00000000
00000000
FFFFFFE0
FFFFFFE0
FFFFFFE0
FFFFFFE0
FFFFFFE0
FFFFFFE0
00000000
00000000
00000000
00000000
00000000
00000000
001F0000
001F0000
001F0000
001F0000
001F0000
001F0000
ENDCHAR
STARTCHAR 248
ENCODING 248
SWIDTH 2304 0
DWIDTH 32 0
BBX 27 29 0 9
BITMAP
03FFFFE0
03FFFFE0
03FFFFE0
03FFFFE0
03FFFFE0
FC00FFE0
FC00FFE0
FC00FFE0
FC00FFE0
FC00FFE0
FC00FFE0
FC1F03E0
FC1F03E0
FC1F03E0
FC1F03E0
FC1F03E0
FC1F03E0
FFE003E0
FFE003E0
FFE003E0
FFE003E0
FFE003E0
FFE003E0
FFFFFC00
FFFFFC00
FFFFFC00
FFFFFC00
FFFFFC00
FFFFFC00
ENDCHAR
STARTCHAR 249
ENCODING 249
SWIDTH 2304 0
DWIDTH 32 0
BBX 27 47 0 9
BITMAP
03E00000
03E00000
03E00000
03E00000
03E00000
03E00000
001F0000
001F0000
001F0000
001F0000
001F0000
001F0000
00000000
00000000
00000000
00000000
00000000
00000000
FC0003E0
FC0003E0
FC0003E0
FC0003E0
FC0003E0
FC0003E0
FC0003E0
FC0003E0
FC0003E0
FC0003E0
FC0003E0
FC0003E0
FC0003E0
FC0003E0
FC0003E0
FC0003E0
FC0003E0
FC0003E0
FC0003E0
FC0003E0
FC0003E0
FC0003E0
FC0003E0
03FFFC00
03FFFC00
03FFFC00
03FFFC00
03FFFC00
03FFFC00
ENDCHAR
STARTCHAR 250
ENCODING 250
SWIDTH 2304 0
DWIDTH 32 0
BBX 27 47 0 9
BITMAP
0000FC00
0000FC00
0000FC00
0000FC00
0000FC00
0000FC00
001F0000
001F0000
001F0000
001F0000
001F0000
001F0000
00000000
00000000
00000000
00000000
00000000
00000000
FC0003E0
FC0003E0
FC0003E0
FC0003E0
FC0003E0
FC0003E0
FC0003E0
FC0003E0
FC0003E0
FC0003E0
FC0003E0
FC0003E0
FC0003E0
FC0003E0
FC0003E0
FC0003E0
FC0003E0
FC0003E0
FC0003E0
FC0003E0
FC0003E0
FC0003E0
FC0003E0
03FFFC00
03FFFC00
03FFFC00
03FFFC00
03FFFC00
03FFFC00
ENDCHAR
STARTCHAR 251
ENCODING 251
SWIDTH 2304 0
DWIDTH 32 0
BBX 27 47 0 9
BITMAP
001F0000
001F0000
001F0000
001F0000
001F0000
001F0000
03E0FC00
03E0FC00
03E0FC00
03E0FC00
03E0FC00
03E0FC00
00000000
00000000
00000000
00000000
00000000
00000000
FC0003E0
FC0003E0
FC0003E0
FC0003E0
FC0003E0
FC0003E0
FC0003E0
FC0003E0
FC0003E0
FC0003E0
FC0003E0
FC0003E0
FC0003E0
FC0003E0
FC0003E0
FC0003E0
FC0003E0
FC0003E0
FC0003E0
FC0003E0
FC0003E0
FC0003E0
FC0003E0
03FFFC00
03FFFC00
03FFFC00
03FFFC00
03FFFC00
03FFFC00
ENDCHAR
STARTCHAR 252
ENCODING 252
SWIDTH 2304 0
DWIDTH 32 0
BBX 27 41 0 9
BITMAP
03E0FC00
03E0FC00
03E0FC00
03E0FC00
03E0FC00
03E0FC00
00000000
00000000
00000000
00000000
00000000
00000000
FC0003E0
FC0003E0
FC0003E0
FC0003E0
FC0003E0
FC0003E0
FC0003E0
FC0003E0
FC0003E0
FC0003E0
FC0003E0
FC0003E0
FC0003E0
FC0003E0
FC0003E0
FC0003E0
FC0003E0
FC0003E0
FC0003E0
FC0003E0
FC0003E0
FC0003E0
FC0003E0
03FFFC00
03FFFC00
03FFFC00
03FFFC00
03FFFC00
03FFFC00
ENDCHAR
STARTCHAR 253
ENCODING 253
SWIDTH 2304 0
DWIDTH 32 0
BBX 27 58 0 -2
BITMAP
0000FC00
0000FC00
0000FC00
0000FC00
0000FC00
0000FC00
001F0000
001F0000
001F0000
001F0000
001F0000
001F0000
00000000
00000000
00000000
00000000
00000000
00000000
FC0003E0
FC0003E0
FC0003E0
FC0003E0
FC0003E0
FC0003E0
FC0003E0
FC0003E0
FC0003E0
FC0003E0
FC0003E0
FC0003E0
FC0003E0
FC0003E0
FC0003E0
FC0003E0
FC0003E0
03E0FC00
03E0FC00
03E0FC00
03E0FC00
03E0FC00
03E0FC00
001F0000
001F0000
001F0000
001F0000
001F0000
001F0000
03E00000
03E00000
03E00000
03E00000
03E00000
03E00000
FC000000
FC000000
FC000000
FC000000
FC000000
ENDCHAR
STARTCHAR 254
ENCODING 254
SWIDTH 2304 0
DWIDTH 32 0
BBX 27 52 0 -2
BITMAP
FC000000
FC000000
FC000000
FC000000
FC000000
FC000000
FC000000
FC000000
FC000000
FC000000
FC000000
FC000000
FFFFFC00
FFFFFC00
FFFFFC00
FFFFFC00
FFFFFC00
FC0003E0
FC0003E0
FC0003E0
FC0003E0
FC0003E0
FC0003E0
FC0003E0
FC0003E0
FC0003E0
FC0003E0
FC0003E0
FC0003E0
FC0003E0
FC0003E0
FC0003E0
FC0003E0
FC0003E0
FC0003E0
FFFFFC00
FFFFFC00
FFFFFC00
FFFFFC00
FFFFFC00
FFFFFC00
FC000000
FC000000
FC000000
FC000000
FC000000
FC000000
FC000000
FC000000
FC000000
FC000000
FC000000
ENDCHAR
STARTCHAR 255
ENCODING 255
SWIDTH 2304 0
DWIDTH 32 0
BBX 27 52 0 -2
BITMAP
03E0FC00
03E0FC00
03E0FC00
03E0FC00
03E0FC00
03E0FC00
00000000
00000000
00000000
00000000
00000000
00000000
FC0003E0
FC0003E0
FC0003E0
FC0003E0
FC0003E0
FC0003E0
FC0003E0
FC0003E0
FC0003E0
FC0003E0
FC0003E0
FC0003E0
FC0003E0
FC0003E0
FC0003E0
FC0003E0
FC0003E0
03E0FC00
03E0FC00
03E0FC00
03E0FC00
03E0FC00
03E0FC00
001F0000
001F0000
001F0000
001F0000
001F0000
001F0000
03E00000
03E00000
03E00000
03E00000
03E00000
03E00000
FC000000
FC000000
FC000000
FC000000
FC000000
ENDCHAR
ENDFONT
